<svg width="136" height="105" xmlns="http://www.w3.org/2000/svg" xmlns:xlink="http://www.w3.org/1999/xlink" overflow="hidden"><defs><clipPath id="clip0"><rect x="326" y="171" width="136" height="105"/></clipPath><clipPath id="clip1"><rect x="327" y="172" width="134" height="103"/></clipPath><clipPath id="clip2"><rect x="327" y="172" width="134" height="103"/></clipPath><clipPath id="clip3"><rect x="270" y="172" width="336" height="257"/></clipPath></defs><g clip-path="url(#clip0)" transform="translate(-326 -171)"><g clip-path="url(#clip1)"><g clip-path="url(#clip2)"><g clip-path="url(#clip3)"><path d="M340.401 259.278 306.07 199.816C305.771 199.292 305.104 199.11 304.58 199.41 304.411 199.506 304.271 199.647 304.174 199.816L269.844 259.278C269.533 259.795 269.7 260.466 270.217 260.777 270.39 260.881 270.588 260.935 270.79 260.933L281.031 260.933C281.635 260.935 282.125 261.425 282.127 262.029L282.127 274.722C282.127 275.326 282.615 275.816 283.219 275.818L296.568 275.818C297.173 275.818 297.663 275.327 297.663 274.722L297.663 268.586C297.663 267.983 298.152 267.494 298.756 267.494L311.462 267.493C312.066 267.493 312.556 267.982 312.558 268.586L312.558 274.722C312.558 275.327 313.048 275.818 313.654 275.818L327.019 275.818C327.624 275.818 328.114 275.327 328.114 274.722L328.114 262.016C328.114 261.411 328.605 260.92 329.21 260.92L339.451 260.92C340.056 260.92 340.547 260.43 340.547 259.825 340.547 259.633 340.496 259.445 340.401 259.278ZM292.536 265.858C292.333 266.068 292.054 266.187 291.762 266.189L286.943 266.189C286.337 266.189 285.847 265.699 285.847 265.094 285.847 264.489 286.337 263.998 286.943 263.998L291.762 263.998C292.367 263.998 292.857 264.489 292.857 265.094 292.857 265.385 292.742 265.663 292.536 265.868ZM324.073 265.858C323.87 266.068 323.591 266.187 323.299 266.189L318.483 266.189C317.878 266.189 317.387 265.699 317.387 265.094 317.387 264.489 317.878 263.998 318.483 263.998L323.299 263.998C323.904 263.998 324.394 264.489 324.394 265.094 324.394 265.385 324.278 265.663 324.073 265.868Z" fill="#6C63FF" fill-opacity="0.1" transform="matrix(1 0 0 1.00601 239.288 150.316)"/><path d="M128.206 259.801 93.8756 200.339C93.5726 199.815 92.9024 199.636 92.3786 199.939 92.2128 200.035 92.075 200.173 91.979 200.339L62.3256 251.699C66.0344 256.368 70.1953 260.66 74.7477 264.511L79.5669 264.511C80.172 264.511 80.6625 265.002 80.6625 265.607 80.6625 266.212 80.172 266.702 79.5669 266.702L77.528 266.702C80.0252 268.58 82.6835 270.234 85.4717 271.644L85.4718 269.112C85.4718 268.507 85.9623 268.016 86.5673 268.016L99.2972 268.016C99.901 268.018 100.39 268.508 100.39 269.112L100.39 275.242C100.389 275.401 100.424 275.558 100.492 275.702 100.671 276.089 101.059 276.337 101.485 276.338L114.847 276.338C115.191 276.339 115.515 276.175 115.718 275.897 115.865 275.708 115.943 275.475 115.939 275.235L115.939 262.542C115.939 261.937 116.43 261.446 117.035 261.446L127.276 261.446C127.881 261.437 128.363 260.938 128.354 260.333 128.351 260.146 128.3 259.963 128.206 259.801ZM105.513 264.832C105.717 264.623 105.996 264.504 106.288 264.501L111.107 264.501C111.712 264.501 112.203 264.992 112.203 265.597 112.203 266.202 111.712 266.693 111.107 266.693L106.288 266.693C105.683 266.692 105.192 266.202 105.193 265.597 105.193 265.306 105.308 265.028 105.513 264.822ZM83.9492 242.828C83.3441 242.828 82.8536 242.338 82.8536 241.733L82.8536 233.411C82.8536 232.806 83.3441 232.316 83.9492 232.316L101.909 232.316C102.513 232.318 103.001 232.808 103.001 233.411L103.001 241.733C103.001 242.336 102.513 242.826 101.909 242.828Z" fill="#6C63FF" fill-opacity="0.1" transform="matrix(1 0 0 1.00601 239.288 150.316)"/><path d="M263.906 152.984 221.433 152.984 221.433 143.796C221.433 142.582 220.449 141.598 219.235 141.598L206.75 141.598 206.75 131.81C206.75 131.046 206.131 130.427 205.367 130.427L189.297 130.427C188.533 130.427 187.913 131.046 187.913 131.81L187.913 141.598 173.247 141.598C172.033 141.598 171.049 142.582 171.049 143.796L171.049 152.984 130.539 152.984C130.294 152.986 130.096 153.185 130.096 153.431L130.096 275.408C130.096 275.653 130.294 275.853 130.539 275.854L157.462 275.854C157.709 275.854 157.909 275.654 157.909 275.408L157.909 258.997C157.911 258.751 158.11 258.552 158.356 258.55L169.729 258.55C169.975 258.552 170.174 258.751 170.176 258.997L170.176 275.408C170.176 275.653 170.374 275.853 170.619 275.854L223.826 275.854C224.072 275.853 224.271 275.654 224.273 275.408L224.273 258.997C224.273 258.751 224.471 258.552 224.716 258.55L236.089 258.55C236.336 258.55 236.536 258.75 236.536 258.997L236.536 275.408C236.538 275.654 236.737 275.853 236.983 275.854L263.906 275.854C264.152 275.853 264.351 275.654 264.352 275.408L264.352 153.431C264.351 153.185 264.152 152.986 263.906 152.984ZM153.09 252.85C153.09 253.095 152.891 253.294 152.646 253.294L136.017 253.294C135.772 253.296 135.572 253.099 135.571 252.854 135.571 252.853 135.571 252.852 135.571 252.85L135.571 247.171C135.571 246.924 135.771 246.724 136.017 246.724L152.646 246.724C152.892 246.726 153.09 246.925 153.09 247.171ZM153.09 238.174C153.092 238.419 152.895 238.619 152.65 238.621 152.649 238.621 152.647 238.621 152.646 238.621L136.017 238.621C135.772 238.623 135.572 238.426 135.571 238.181 135.57 238.179 135.57 238.177 135.571 238.174L135.571 232.498C135.569 232.253 135.766 232.053 136.011 232.051 136.013 232.051 136.015 232.051 136.017 232.051L152.646 232.051C152.891 232.051 153.09 232.25 153.09 232.495 153.09 232.496 153.09 232.497 153.09 232.498ZM153.09 223.502C153.09 223.747 152.892 223.947 152.646 223.948L136.017 223.948C135.771 223.948 135.571 223.748 135.571 223.502L135.571 217.822C135.571 217.575 135.771 217.375 136.017 217.375L152.646 217.375C152.892 217.377 153.09 217.576 153.09 217.822ZM153.09 208.825C153.092 209.07 152.895 209.27 152.65 209.272 152.649 209.272 152.647 209.272 152.646 209.272L136.017 209.272C135.772 209.274 135.572 209.077 135.571 208.832 135.57 208.83 135.57 208.828 135.571 208.825L135.571 203.149C135.569 202.904 135.766 202.704 136.011 202.702 136.013 202.702 136.015 202.702 136.017 202.702L152.646 202.702C152.891 202.702 153.09 202.901 153.09 203.146 153.09 203.147 153.09 203.148 153.09 203.149ZM153.09 194.153C153.09 194.398 152.892 194.598 152.646 194.599L136.017 194.599C135.771 194.599 135.571 194.399 135.571 194.153L135.571 188.473C135.571 188.228 135.769 188.029 136.014 188.029 136.015 188.029 136.016 188.029 136.017 188.029L152.646 188.029C152.891 188.029 153.09 188.228 153.09 188.473ZM153.09 179.48C153.09 179.725 152.891 179.923 152.646 179.923L136.017 179.923C135.772 179.925 135.572 179.728 135.571 179.483 135.571 179.482 135.571 179.481 135.571 179.48L135.571 173.8C135.571 173.553 135.771 173.353 136.017 173.353L152.646 173.353C152.892 173.355 153.09 173.554 153.09 173.8ZM153.09 164.804C153.092 165.049 152.895 165.249 152.65 165.25 152.649 165.25 152.647 165.25 152.646 165.25L136.017 165.25C135.772 165.252 135.572 165.055 135.571 164.81 135.57 164.808 135.57 164.806 135.571 164.804L135.571 159.127C135.569 158.882 135.766 158.682 136.011 158.68 136.013 158.68 136.015 158.68 136.017 158.68L152.646 158.68C152.891 158.68 153.09 158.879 153.09 159.124 153.09 159.125 153.09 159.126 153.09 159.127ZM192.514 252.847C192.514 253.092 192.316 253.291 192.071 253.291 192.07 253.291 192.068 253.291 192.067 253.291L175.425 253.291C175.18 253.291 174.98 253.093 174.978 252.847L174.978 247.171C174.98 246.925 175.179 246.726 175.425 246.724L192.054 246.724C192.301 246.724 192.501 246.924 192.501 247.171ZM192.514 238.171C192.516 238.416 192.319 238.616 192.074 238.618 192.072 238.618 192.07 238.618 192.067 238.618L175.425 238.618C175.178 238.618 174.978 238.418 174.978 238.171L174.978 232.498C174.978 232.251 175.178 232.051 175.425 232.051L192.054 232.051C192.299 232.049 192.499 232.246 192.501 232.491 192.501 232.493 192.501 232.496 192.501 232.498ZM192.514 223.498C192.514 223.745 192.314 223.945 192.067 223.945L175.425 223.945C175.179 223.943 174.98 223.744 174.978 223.498L174.978 217.822C174.98 217.576 175.179 217.377 175.425 217.375L192.054 217.375C192.301 217.375 192.501 217.575 192.501 217.822ZM192.514 208.822C192.516 209.067 192.319 209.267 192.074 209.269 192.072 209.269 192.07 209.269 192.067 209.269L175.425 209.269C175.178 209.269 174.978 209.069 174.978 208.822L174.978 203.149C174.978 202.902 175.178 202.702 175.425 202.702L192.054 202.702C192.299 202.7 192.499 202.897 192.501 203.142 192.501 203.144 192.501 203.147 192.501 203.149ZM192.514 194.149C192.514 194.396 192.314 194.596 192.067 194.596L175.425 194.596C175.179 194.594 174.98 194.395 174.978 194.149L174.978 188.473C174.98 188.227 175.18 188.029 175.425 188.029L192.054 188.029C192.299 188.027 192.499 188.225 192.501 188.469 192.501 188.471 192.501 188.472 192.501 188.473ZM192.514 179.476C192.514 179.721 192.316 179.92 192.071 179.92 192.07 179.92 192.068 179.92 192.067 179.92L175.425 179.92C175.18 179.92 174.98 179.722 174.978 179.476L174.978 173.8C174.98 173.554 175.179 173.355 175.425 173.353L192.054 173.353C192.301 173.353 192.501 173.553 192.501 173.8ZM192.514 164.8C192.516 165.045 192.319 165.245 192.074 165.247 192.072 165.247 192.07 165.247 192.067 165.247L175.425 165.247C175.178 165.247 174.978 165.047 174.978 164.8L174.978 159.127C174.978 158.88 175.178 158.68 175.425 158.68L192.054 158.68C192.299 158.678 192.499 158.876 192.501 159.12 192.501 159.123 192.501 159.125 192.501 159.127ZM219.454 252.844C219.454 253.089 219.255 253.287 219.01 253.287 219.009 253.287 219.008 253.287 219.007 253.287L202.378 253.287C202.132 253.287 201.933 253.089 201.931 252.844L201.931 247.171C201.933 246.925 202.132 246.726 202.378 246.724L219.007 246.724C219.253 246.724 219.454 246.924 219.454 247.171ZM219.454 238.168C219.455 238.413 219.258 238.613 219.013 238.615 219.011 238.615 219.009 238.615 219.007 238.615L202.378 238.615C202.131 238.615 201.931 238.415 201.931 238.168L201.931 232.498C201.931 232.251 202.131 232.051 202.378 232.051L219.007 232.051C219.252 232.049 219.452 232.246 219.454 232.491 219.454 232.493 219.454 232.496 219.454 232.498ZM219.454 223.495C219.454 223.742 219.253 223.942 219.007 223.942L202.378 223.942C202.132 223.94 201.933 223.741 201.931 223.495L201.931 217.822C201.933 217.576 202.132 217.377 202.378 217.375L219.007 217.375C219.253 217.375 219.454 217.575 219.454 217.822ZM219.454 208.819C219.455 209.064 219.258 209.264 219.013 209.266 219.011 209.266 219.009 209.266 219.007 209.266L202.378 209.266C202.131 209.266 201.931 209.066 201.931 208.819L201.931 203.149C201.931 202.902 202.131 202.702 202.378 202.702L219.007 202.702C219.252 202.7 219.452 202.897 219.454 203.142 219.454 203.144 219.454 203.147 219.454 203.149ZM219.454 194.146C219.454 194.393 219.253 194.593 219.007 194.593L202.378 194.593C202.132 194.591 201.933 194.392 201.931 194.146L201.931 188.473C201.933 188.227 202.132 188.029 202.378 188.029L219.007 188.029C219.252 188.027 219.452 188.225 219.454 188.469 219.454 188.471 219.454 188.472 219.454 188.473ZM219.454 179.473C219.454 179.718 219.255 179.917 219.01 179.917 219.009 179.917 219.008 179.917 219.007 179.917L202.378 179.917C202.132 179.917 201.933 179.719 201.931 179.473L201.931 173.8C201.933 173.554 202.132 173.355 202.378 173.353L219.007 173.353C219.253 173.353 219.454 173.553 219.454 173.8ZM219.454 164.797C219.455 165.042 219.258 165.242 219.013 165.244 219.011 165.244 219.009 165.244 219.007 165.244L202.378 165.244C202.131 165.244 201.931 165.044 201.931 164.797L201.931 159.127C201.931 158.88 202.131 158.68 202.378 158.68L219.007 158.68C219.252 158.678 219.452 158.876 219.454 159.12 219.454 159.123 219.454 159.125 219.454 159.127ZM258.878 252.841C258.876 253.086 258.676 253.284 258.431 253.284L241.802 253.284C241.557 253.286 241.357 253.089 241.355 252.844 241.355 252.843 241.355 252.842 241.355 252.841L241.355 247.171C241.355 246.924 241.555 246.724 241.802 246.724L258.431 246.724C258.677 246.726 258.876 246.925 258.878 247.171ZM258.878 238.164C258.878 238.411 258.678 238.611 258.431 238.611L241.802 238.611C241.557 238.613 241.357 238.416 241.355 238.171 241.355 238.169 241.355 238.167 241.355 238.164L241.355 232.498C241.353 232.253 241.55 232.053 241.795 232.051 241.798 232.051 241.8 232.051 241.802 232.051L258.431 232.051C258.678 232.051 258.878 232.251 258.878 232.498ZM258.878 223.492C258.876 223.738 258.677 223.937 258.431 223.938L241.802 223.938C241.555 223.938 241.355 223.738 241.355 223.492L241.355 217.822C241.355 217.575 241.555 217.375 241.802 217.375L258.431 217.375C258.677 217.377 258.876 217.576 258.878 217.822ZM258.878 208.815C258.878 209.062 258.678 209.262 258.431 209.262L241.802 209.262C241.557 209.264 241.357 209.067 241.355 208.822 241.355 208.82 241.355 208.818 241.355 208.815L241.355 203.149C241.353 202.904 241.55 202.704 241.795 202.702 241.798 202.702 241.8 202.702 241.802 202.702L258.431 202.702C258.678 202.702 258.878 202.902 258.878 203.149ZM258.878 194.143C258.876 194.389 258.677 194.588 258.431 194.589L241.802 194.589C241.555 194.589 241.355 194.389 241.355 194.143L241.355 188.473C241.355 188.228 241.554 188.029 241.799 188.029 241.8 188.029 241.801 188.029 241.802 188.029L258.431 188.029C258.676 188.029 258.876 188.227 258.878 188.473ZM258.878 179.47C258.876 179.715 258.676 179.913 258.431 179.913L241.802 179.913C241.557 179.915 241.357 179.718 241.355 179.473 241.355 179.472 241.355 179.471 241.355 179.47L241.355 173.8C241.355 173.553 241.555 173.353 241.802 173.353L258.431 173.353C258.677 173.355 258.876 173.554 258.878 173.8ZM258.878 164.794C258.878 165.04 258.678 165.241 258.431 165.241L241.802 165.241C241.557 165.242 241.357 165.045 241.355 164.8 241.355 164.798 241.355 164.796 241.355 164.794L241.355 159.127C241.353 158.882 241.55 158.682 241.795 158.68 241.798 158.68 241.8 158.68 241.802 158.68L258.431 158.68C258.678 158.68 258.878 158.88 258.878 159.127Z" fill="#6C63FF" fill-opacity="0.1" transform="matrix(1 0 0 1.00601 239.288 150.316)"/><path d="M137.937 62.3289C136.071 61.9763 134.142 62.1871 132.396 62.9346 130.275 63.8812 127.851 63.8812 125.73 62.9346 123.221 61.8353 120.357 61.8909 117.892 63.0868 117.197 63.4561 116.422 63.6503 115.635 63.6528 112.457 63.6528 109.813 60.4522 109.263 56.2287 109.898 55.764 110.437 55.182 110.852 54.5142 112.716 51.5121 115.602 49.5857 118.842 49.5857 122.083 49.5857 124.932 51.4889 126.786 54.4612 127.921 56.2784 129.923 57.3713 132.065 57.3442L132.148 57.3442C134.68 57.3442 136.871 59.3731 137.937 62.3289Z" fill="#6C63FF" fill-opacity="0.1" transform="matrix(1 0 0 1.00601 239.288 150.316)"/><path d="M147.622 49.0727 142.485 52.333 145.6 46.6697C144.715 45.9657 143.622 45.5756 142.492 45.5609L142.409 45.5609C142.052 45.5672 141.695 45.5417 141.343 45.4848L139.602 46.587 140.35 45.2299C139.116 44.799 138.049 43.9878 137.305 42.913L134.187 44.8989 136.156 41.3209C134.333 39.133 131.877 37.7892 129.176 37.7892 125.935 37.7892 123.049 39.7189 121.186 42.721 120.064 44.5563 118.04 45.6443 115.89 45.5675L115.714 45.5675C112.136 45.5675 109.237 49.6254 109.237 54.6267 109.237 59.628 112.136 63.6859 115.714 63.6859 116.501 63.6834 117.276 63.4903 117.972 63.1233 120.435 61.9245 123.301 61.8676 125.81 62.9677 127.928 63.9196 130.352 63.9256 132.476 62.9842 134.966 61.9055 137.801 61.9599 140.247 63.1332 140.936 63.4936 141.701 63.6831 142.478 63.6859 146.056 63.6859 148.956 59.6313 148.956 54.6267 148.985 52.6927 148.526 50.7825 147.622 49.0727Z" fill="#6C63FF" fill-opacity="0.1" transform="matrix(1 0 0 1.00601 239.288 150.316)"/><path d="M285.228 116.439C283.919 116.191 282.566 116.338 281.342 116.863 279.857 117.527 278.16 117.527 276.675 116.863 274.919 116.094 272.913 116.132 271.187 116.969 270.701 117.227 270.159 117.363 269.609 117.366 267.384 117.366 265.534 115.122 265.15 112.166 265.594 111.842 265.972 111.435 266.262 110.968 267.566 108.866 269.572 107.519 271.853 107.519 274.133 107.519 276.119 108.843 277.423 110.928 278.216 112.204 279.616 112.974 281.117 112.961L281.177 112.961C282.947 112.951 284.48 114.371 285.228 116.439Z" fill="#6C63FF" fill-opacity="0.1" transform="matrix(1 0 0 1.00601 239.288 150.316)"/><path d="M292.003 107.162 288.409 109.442 290.59 105.47C289.973 104.975 289.207 104.701 288.415 104.692L288.359 104.692C288.11 104.699 287.86 104.68 287.614 104.636L286.393 105.411 286.916 104.461C286.053 104.159 285.307 103.592 284.784 102.842L282.603 104.226 283.98 101.72C282.706 100.191 280.985 99.2509 279.095 99.2509 276.827 99.2509 274.792 100.598 273.501 102.7 272.713 103.976 271.303 104.734 269.804 104.686L269.681 104.686C267.179 104.686 265.147 107.526 265.147 111.028 265.147 114.529 267.179 117.369 269.681 117.369 270.232 117.368 270.774 117.232 271.26 116.972 272.986 116.136 274.991 116.097 276.748 116.866 277.487 117.196 278.286 117.367 279.095 117.369 279.893 117.368 280.682 117.2 281.412 116.876 283.154 116.122 285.138 116.16 286.85 116.982 287.332 117.235 287.868 117.368 288.412 117.369 290.918 117.369 292.947 114.529 292.947 111.028 292.96 109.68 292.636 108.351 292.003 107.162Z" fill="#6C63FF" fill-opacity="0.1" transform="matrix(1 0 0 1.00601 239.288 150.316)"/><path d="M94.1371 101.545C95.4457 101.296 96.7986 101.444 98.0229 101.968 99.5065 102.633 101.203 102.633 102.687 101.968 104.443 101.199 106.449 101.238 108.174 102.074 108.661 102.332 109.203 102.468 109.753 102.471 111.977 102.471 113.831 100.227 114.215 97.2716 113.77 96.9482 113.392 96.5413 113.103 96.0734 111.799 93.9716 109.793 92.6245 107.509 92.6245 105.225 92.6245 103.246 93.9484 101.942 96.0337 101.149 97.3102 99.7474 98.0806 98.2447 98.066L98.1884 98.0659C96.4176 98.056 94.8818 99.476 94.1371 101.545Z" fill="#6C63FF" fill-opacity="0.1" transform="matrix(1 0 0 1.00601 239.288 150.316)"/><path d="M87.3584 92.267 90.9563 94.5475 88.7717 90.5756C89.3895 90.0809 90.155 89.8071 90.9463 89.7978L91.0225 89.7978C91.272 89.804 91.5215 89.7852 91.7672 89.7415L92.9852 90.5161 92.4623 89.5661C93.3264 89.2645 94.0734 88.6981 94.5972 87.9476L96.7784 89.3311 95.3982 86.8255C96.6758 85.2963 98.3936 84.3563 100.287 84.3563 102.554 84.3563 104.573 85.7034 105.881 87.8052 106.668 89.0822 108.079 89.8399 109.578 89.7912L109.697 89.7912C112.203 89.7912 114.232 92.6311 114.232 96.133 114.232 99.6348 112.203 102.475 109.697 102.475 109.146 102.473 108.604 102.336 108.118 102.078 106.392 101.241 104.387 101.202 102.63 101.972 101.893 102.301 101.095 102.473 100.287 102.475 99.4886 102.474 98.6992 102.306 97.97 101.982 96.2265 101.227 94.2413 101.266 92.5285 102.087 92.0465 102.341 91.5106 102.473 90.9662 102.475 88.4639 102.475 86.4316 99.6348 86.4316 96.133 86.4129 94.7871 86.7315 93.4581 87.3584 92.267Z" fill="#6C63FF" fill-opacity="0.1" transform="matrix(1 0 0 1.00601 239.288 150.316)"/><path d="M115.023 154.612 187.652 189.697C189.542 190.598 192.074 191.071 194.563 191.071 197.052 191.071 199.584 190.598 201.474 189.697L274.103 154.612C277.926 152.765 277.926 149.76 274.103 147.916L201.474 112.831C199.584 111.931 197.052 111.458 194.563 111.458 192.074 111.458 189.542 111.931 187.652 112.831L115.023 147.916C111.213 149.76 111.213 152.765 115.023 154.612Z" fill="#192534" transform="matrix(1 0 0 1.00601 239.288 150.316)"/><path d="M274.103 190.541C274.103 190.541 260.841 184.147 259.08 183.286 257.319 182.426 256.849 182.472 255.002 183.329 253.155 184.186 201.431 209.186 201.431 209.186 199.498 210.09 197.009 210.56 194.52 210.56 192.031 210.56 189.499 210.09 187.609 209.186 187.609 209.186 137.255 184.891 134.895 183.733 132.32 182.488 131.585 182.488 129.268 183.604L114.933 190.515C111.11 192.362 111.11 195.364 114.933 197.211L187.563 232.296C189.453 233.196 191.985 233.67 194.474 233.67 196.963 233.67 199.495 233.196 201.385 232.296L274.014 197.211C277.923 195.407 277.923 192.405 274.1 190.558Z" fill="#192534" transform="matrix(1 0 0 1.00601 239.288 150.316)"/><path d="M274.103 233.166C274.103 233.166 260.841 226.772 259.08 225.911 257.319 225.051 256.849 225.097 255.002 225.954 253.155 226.811 201.474 251.838 201.474 251.838 199.541 252.741 197.052 253.215 194.563 253.215 192.074 253.215 189.542 252.741 187.652 251.838 187.652 251.838 137.298 227.543 134.938 226.384 132.363 225.14 131.628 225.14 129.311 226.255L114.976 233.166C111.153 235.013 111.153 238.019 114.976 239.862L187.606 274.947C189.496 275.891 192.028 276.321 194.517 276.321 197.006 276.321 199.538 275.848 201.428 274.947L274.06 239.862C277.926 238.019 277.926 235.013 274.103 233.166Z" fill="#192534" transform="matrix(1 0 0 1.00601 239.288 150.316)"/><path d="M135.398 70.1039C135.398 82.1998 128.339 92.0055 119.63 92.0055 110.921 92.0055 103.862 82.1998 103.862 70.1039 103.862 58.0079 110.921 48.2022 119.63 48.2022 128.339 48.2022 135.398 58.0079 135.398 70.1039Z" fill="#192534" transform="matrix(1 0 0 1.00601 270.14 172)"/><path d="M117.879 106.023 131.897 106.023 131.897 120.04 117.879 120.04Z" fill="#6C63FF" transform="matrix(1 0 0 1.00601 270.14 172)"/><path d="M138.023 195.116 142.627 201.59C142.622 198.956 143.854 196.473 145.954 194.884 143.965 192.925 141.781 191.173 139.436 189.658 139.332 189.568 139.197 189.523 139.059 189.532 138.945 189.569 138.846 189.642 138.778 189.74 138.093 190.551 137.222 191.624 136.928 192.663 136.646 193.63 137.46 194.348 138.023 195.116Z" fill="#FBBEBE" transform="matrix(1 0 0 1.00601 239.288 150.316)"/><path d="M147.178 194.232C147.89 194.232 148.549 194.563 149.164 194.917 149.991 195.312 150.76 195.816 151.451 196.417 152.147 197.028 152.568 197.892 152.623 198.816 152.623 199.554 152.319 200.253 152.054 200.941 150.835 204.15 150.539 207.635 151.2 211.003 151.415 212.102 151.733 213.254 151.392 214.313 151.084 215.286 150.283 216.008 149.499 216.66 148.247 217.696 146.871 218.709 145.259 218.927 143.647 219.146 141.783 218.265 141.426 216.696 141.214 215.763 141.548 214.806 141.78 213.88 142.333 211.665 142.319 209.355 142.303 207.071 142.322 206.377 142.264 205.684 142.131 205.002 142.022 204.526 141.836 204.069 141.681 203.602 141.264 202.348 141.082 200.954 141.558 199.713 141.836 199.079 142.198 198.484 142.634 197.946 143.759 196.44 144.974 194.222 147.178 194.232Z" fill="#F2F2F2" transform="matrix(1 0 0 1.00601 239.288 150.316)"/><path d="M144.679 97.2153C144.719 98.0362 144.749 98.9034 144.368 99.6315 144.037 100.277 143.425 100.724 142.836 101.151L140.873 102.571C140.774 102.64 140.664 102.73 140.655 102.849 140.665 102.988 140.745 103.112 140.866 103.18 141.666 103.799 142.598 104.224 143.59 104.421 144.289 104.539 144.997 104.598 145.705 104.6 149.386 104.709 153.13 104.792 156.681 103.825 157.326 103.677 157.94 103.416 158.495 103.054 159.054 102.685 159.425 102.092 159.514 101.429 158.607 101.379 157.806 100.846 157.058 100.333 156.31 99.8202 155.546 99.2608 155.307 98.4069 155.159 97.874 155.245 97.298 155.122 96.7519 154.917 95.8715 154.182 95.2128 153.394 94.766 151.362 93.6141 148.962 93.5446 146.748 92.9422 145.954 92.7271 144.534 91.7738 144.481 93.0614 144.425 94.4284 144.613 95.8516 144.679 97.2153Z" fill="#FBBEBE" transform="matrix(1 0 0 1.00601 239.288 150.316)"/><path d="M144.679 97.2153C144.719 98.0362 144.749 98.9034 144.368 99.6315 144.037 100.277 143.425 100.724 142.836 101.151L140.873 102.571C140.774 102.64 140.664 102.73 140.655 102.849 140.665 102.988 140.745 103.112 140.866 103.18 141.666 103.799 142.598 104.224 143.59 104.421 144.289 104.539 144.997 104.598 145.705 104.6 149.386 104.709 153.13 104.792 156.681 103.825 157.326 103.677 157.94 103.416 158.495 103.054 159.054 102.685 159.425 102.092 159.514 101.429 158.607 101.379 157.806 100.846 157.058 100.333 156.31 99.8202 155.546 99.2608 155.307 98.4069 155.159 97.874 155.245 97.298 155.122 96.7519 154.917 95.8715 154.182 95.2128 153.394 94.766 151.362 93.6141 148.962 93.5446 146.748 92.9422 145.954 92.7271 144.534 91.7738 144.481 93.0614 144.425 94.4284 144.613 95.8516 144.679 97.2153Z" fill="#000000" fill-opacity="0.1" transform="matrix(1 0 0 1.00601 239.288 150.316)"/><path d="M141.098 143.223C138.238 142.521 135.23 143.554 132.638 144.934 130.046 146.314 127.65 148.122 124.896 149.164 122.688 150.002 120.229 150.372 118.372 151.832 116.717 153.156 115.761 155.165 115.145 157.194 114.745 158.329 114.589 159.536 114.688 160.736 114.848 161.656 115.141 162.548 115.559 163.384 117.479 167.634 119.901 171.629 122.321 175.63 126.657 182.783 131.033 189.989 136.653 196.188 138.447 194.957 138.271 191.991 140.049 190.74 140.496 190.409 141.042 190.244 141.416 189.85 142.257 188.979 141.929 187.556 141.532 186.414 139.074 179.315 136.154 172.385 132.79 165.668 137.626 165.701 141.681 161.921 146.444 161.073 147.765 160.879 149.1 160.791 150.435 160.809 155.145 160.723 159.847 160.391 164.522 159.816 166.217 159.604 168.014 159.316 169.289 158.177 170.613 156.992 171.083 155.145 171.483 153.414 172.324 149.81 174.432 146.645 175.73 143.18 176.061 142.286 176.392 141.389 176.799 140.532 177.156 139.797 177.58 139.096 177.957 138.371 179.149 136.054 179.824 133.515 180.403 130.976 181.098 127.931 181.727 124.82 182.369 121.762 182.8 119.656 183.637 117.373 182.637 115.473 182.071 114.397 181.002 113.672 179.897 113.156 178.715 112.616 177.398 112.265 176.114 112.467 173.585 112.868 171.88 115.185 170.46 117.31L168.243 120.649C167.708 121.417 167.219 122.217 166.78 123.043 165.946 124.678 165.492 126.472 164.853 128.189 163.129 132.803 159.888 136.971 155.486 139.168 154.315 139.754 153.077 140.194 151.898 140.76 150.975 141.204 150.088 141.724 149.154 142.147 146.629 143.319 143.816 143.888 141.098 143.223Z" fill="#01E7C0" transform="matrix(1 0 0 1.00601 239.288 150.316)"/><path d="M130.146 67.4758C130.146 72.3145 126.223 76.2371 121.384 76.2371 116.546 76.2371 112.623 72.3145 112.623 67.4758 112.623 62.637 116.546 58.7145 121.384 58.7145 126.223 58.7145 130.146 62.637 130.146 67.4758Z" fill="#FBBEBE" transform="matrix(1 0 0 1.00601 270.14 172)"/><path d="M156.056 98.9894C155.685 99.9824 155.294 101.012 154.596 101.819 153.345 103.263 151.322 103.776 149.413 103.852 147.288 103.935 145.168 103.576 143.19 102.796 142.343 102.465 141.479 102.041 140.575 102.134 139.268 102.25 138.298 103.349 137.146 103.981 136.57 104.312 135.938 104.5 135.332 104.762 132.312 106.105 130.141 108.843 129.523 112.09 128.861 115.824 131.867 119.372 133.687 122.702 134.485 124.165 135.415 125.581 135.858 127.183 136.603 129.877 135.885 132.747 134.942 135.379 133.998 138.01 132.82 140.612 132.625 143.398 132.565 144.216 132.85 145.318 133.671 145.308 133.973 145.271 134.261 145.157 134.508 144.977 135.974 144.141 137.68 143.827 139.347 144.087 140.509 144.276 141.614 144.749 142.776 144.911 145.06 145.242 147.337 144.441 149.499 143.647 151.561 142.889 153.706 142.074 155.175 140.439 156.277 139.215 156.91 137.616 158.041 136.418 159.531 134.846 161.778 134.074 163.023 132.304 163.754 131.261 164.052 129.987 164.476 128.789 164.9 127.59 165.535 126.366 166.654 125.76 166.055 124.714 165.386 123.592 165.459 122.387 165.522 121.338 166.104 120.401 166.535 119.441 166.816 118.809 167.038 118.15 167.26 117.495L167.975 115.367C168.166 114.788 168.362 114.212 168.507 113.619 168.756 112.626 168.858 111.567 169.15 110.571 169.891 107.999 171.778 105.937 173.522 103.918 171.997 103.329 170.423 102.875 168.819 102.561 168.279 102.485 167.751 102.347 167.243 102.15 166.664 101.896 166.174 101.488 165.615 101.184 164.741 100.73 163.738 100.608 162.765 100.459 160.491 100.161 158.246 99.6689 156.056 98.9894Z" fill="#6C63FF" transform="matrix(1 0 0 1.00601 239.288 150.316)"/><path d="M126.491 137.974C126.411 138.746 126.437 139.525 126.568 140.29 126.781 141.08 127.101 141.837 127.518 142.541 129.338 146.02 130.827 149.661 132.327 153.295 132.75 154.227 133.073 155.201 133.29 156.201 133.429 156.956 133.446 157.73 133.545 158.492 133.629 159.242 133.829 159.974 134.137 160.663 134.488 161.411 136.388 165.406 137.116 165.797 138.682 166.647 140.784 165.863 141.78 164.383 142.776 162.904 141.449 157.644 140.992 155.926 140.535 154.209 139.589 152.66 138.715 151.107 137.186 148.393 135.802 145.6 134.568 142.74 133.515 140.297 132.555 137.656 132.999 135.031 133.247 133.555 133.929 132.188 134.442 130.781 134.955 129.374 135.302 127.819 134.866 126.382 134.8 126.131 134.688 125.894 134.535 125.684 134.281 125.409 133.962 125.203 133.608 125.085 132.059 124.459 128.891 123.94 128.223 126.021 127.948 126.885 127.892 127.829 127.66 128.712 127.306 130.118 127.047 131.545 126.885 132.985 126.683 134.637 126.587 136.305 126.491 137.974Z" fill="#FBBEBE" transform="matrix(1 0 0 1.00601 239.288 150.316)"/><path d="M158.598 144.196C156.645 146.5 154.745 148.849 152.898 151.243L157.677 154.775C157.85 154.147 158.083 153.537 158.372 152.954 158.698 152.384 159.079 151.846 159.508 151.349L164.35 145.348C163.214 144.637 161.928 144.201 160.593 144.077 159.955 144.17 159.236 144.103 158.598 144.196Z" fill="#FBBEBE" transform="matrix(1 0 0 1.00601 239.288 150.316)"/><path d="M179.579 106.222C180.843 106.51 182.108 106.797 183.356 107.148 185.947 107.88 188.569 108.942 190.363 110.951 190.76 111.395 191.121 112.07 190.77 112.553 190.647 112.694 190.507 112.818 190.353 112.924 189.866 113.328 189.595 113.917 189.294 114.483 188.708 115.567 187.961 116.555 187.079 117.416 186.374 116.644 185.548 115.993 184.633 115.486L182.647 114.245C181.77 113.692 180.86 113.129 179.834 112.97 178.656 112.788 177.467 113.159 176.276 113.248 174.762 113.362 173.25 113.016 171.936 112.256 171.771 112.176 171.629 112.054 171.526 111.901 171.465 111.782 171.428 111.651 171.417 111.517 171.294 110.143 171.722 108.777 172.605 107.718 173.217 106.94 174.591 105.483 175.647 105.348 176.167 105.282 176.905 105.622 177.418 105.738Z" fill="#FBBEBE" transform="matrix(1 0 0 1.00601 239.288 150.316)"/><path d="M178.04 114.4C177.683 114.538 177.336 114.699 177.001 114.884 174.406 116.237 171.728 117.661 169.944 119.981 169.098 121.17 168.384 122.448 167.812 123.791L163.49 132.985 162.583 134.915 161.193 137.834 157.658 145.355C158.919 145.136 160.269 145.149 161.418 145.712 162.566 146.275 163.46 147.483 163.364 148.76 164.39 148.671 164.936 147.556 165.658 146.821 166.247 146.218 167.021 145.828 167.703 145.341 168.592 144.644 169.405 143.855 170.129 142.988 172.403 140.459 174.856 138.096 177.467 135.918 177.978 135.513 178.464 135.077 178.924 134.614 179.883 133.515 180.635 132.251 181.141 130.884 182.215 128.286 182.947 125.56 183.319 122.774 183.544 121.08 183.624 119.292 182.932 117.73 181.826 115.388 179.264 114.104 176.726 114.619" fill="#01E7C0" transform="matrix(1 0 0 1.00601 239.288 150.316)"/><path d="M177.709 114.731C177.352 114.869 177.005 115.03 176.67 115.215 174.075 116.568 171.397 117.992 169.613 120.312 168.767 121.501 168.053 122.779 167.481 124.122L163.159 133.316 162.252 135.246 160.862 138.165 157.327 145.686C158.588 145.467 159.938 145.48 161.087 146.043 162.235 146.606 163.129 147.814 163.033 149.091 164.059 149.002 164.605 147.887 165.327 147.152 165.916 146.549 166.69 146.159 167.372 145.672 168.261 144.975 169.074 144.186 169.798 143.319 172.072 140.79 174.525 138.427 177.136 136.249 177.647 135.844 178.133 135.408 178.593 134.945 179.552 133.846 180.304 132.582 180.81 131.215 181.884 128.617 182.616 125.891 182.988 123.105 183.213 121.411 183.293 119.623 182.601 118.061 181.495 115.719 178.933 114.435 176.395 114.95" fill="#000000" fill-opacity="0.1" transform="matrix(1 0 0 1.00601 239.288 150.316)"/><path d="M154.92 150.051 151.299 149.654C151.2 149.635 151.097 149.643 151.001 149.677 150.906 149.738 150.833 149.827 150.793 149.932 149.628 152.126 148.54 154.359 147.529 156.631 146.967 157.893 146.44 159.405 147.152 160.603 147.364 160.954 147.672 161.245 147.87 161.596 148.32 162.42 148.115 163.447 147.791 164.33 147.667 164.579 147.619 164.859 147.652 165.135 147.741 165.505 148.115 165.727 148.459 165.896 151.303 167.295 154.36 168.208 157.505 168.597 157.745 168.657 157.998 168.62 158.21 168.494 158.348 168.363 158.442 168.193 158.482 168.008 158.603 167.655 158.701 167.294 158.776 166.929 159.015 165.624 158.647 164.281 158.369 162.996 157.919 160.891 157.707 158.674 158.316 156.612 158.572 155.748 158.963 154.93 159.475 154.189 160.051 153.348 158.081 152.557 157.558 151.968 156.671 150.958 156.4 150.214 154.92 150.051Z" fill="#F2F2F2" transform="matrix(1 0 0 1.00601 239.288 150.316)"/><path d="M128.236 120.894 127.137 127.62C128.06 126.746 129.434 126.587 130.705 126.561 131.976 126.534 133.455 126.657 134.346 127.61 134.707 128.001 134.935 128.494 135.286 128.894 135.637 129.295 136.183 129.596 136.683 129.424 137.039 129.274 137.302 128.963 137.391 128.587 137.472 128.214 137.495 127.831 137.457 127.451L137.096 120.031C137.007 118.24 136.914 116.409 136.256 114.735 135.894 113.816 135.37 112.97 134.71 112.236 134.522 112.01 134.298 111.817 134.048 111.663 133.772 111.528 133.476 111.439 133.171 111.402 132.31 111.266 130.91 111.041 130.109 111.507 129.447 111.901 129.384 112.831 129.308 113.52 129.03 115.996 128.64 118.448 128.236 120.894Z" fill="#6C63FF" transform="matrix(1 0 0 1.00601 239.288 150.316)"/><path d="M133.651 62.2196C133.651 65.1225 128.159 67.4758 121.384 67.4758 114.61 67.4758 109.118 65.1225 109.118 62.2196 109.118 59.3168 114.61 56.9635 121.384 56.9635 128.159 56.9635 133.651 59.3168 133.651 62.2196Z" fill="#192534" transform="matrix(1 0 0 1.00601 270.14 172)"/><path d="M112.62 55.2093C112.62 59.0792 109.482 62.2163 105.613 62.2163 101.743 62.2163 98.6055 59.0792 98.6055 55.2093 98.6055 51.3394 101.743 48.2022 105.613 48.2022 109.482 48.2022 112.62 51.3394 112.62 55.2093Z" fill="#192534" transform="matrix(1 0 0 1.00601 270.14 172)"/><path d="M137.153 53.4583C137.153 57.3282 134.015 60.4654 130.146 60.4654 126.276 60.4654 123.138 57.3282 123.138 53.4583 123.138 49.5884 126.276 46.4512 130.146 46.4512 134.015 46.4512 137.153 49.5884 137.153 53.4583Z" fill="#192534" transform="matrix(1 0 0 1.00601 270.14 172)"/><path d="M164.32 71.0207C167.065 73.2436 167.727 77.161 165.866 80.1627 166.077 79.9595 166.276 79.744 166.462 79.5172 168.852 76.471 168.319 72.0643 165.273 69.6746 162.293 67.3364 157.994 67.7889 155.566 70.6963 155.383 70.9255 155.214 71.1654 155.059 71.4146 157.606 68.9685 161.575 68.7997 164.32 71.0207Z" fill="#000000" fill-opacity="0.1" transform="matrix(1 0 0 1.00601 239.288 150.316)"/><path d="M134.631 71.878C137.876 70.4889 141.648 71.7297 143.435 74.7741 143.355 74.4927 143.257 74.2163 143.144 73.9467 141.546 70.4198 137.392 68.8556 133.865 70.4529 130.438 72.0054 128.847 75.9872 130.261 79.4742 130.376 79.7433 130.509 80.0043 130.659 80.2553 129.682 76.8609 131.384 73.2702 134.631 71.878Z" fill="#000000" fill-opacity="0.1" transform="matrix(1 0 0 1.00601 239.288 150.316)"/><path d="M152.236 87.2757C146.159 87.2757 141.118 85.3824 140.141 82.8966 140.03 83.1759 139.972 83.4733 139.969 83.7738 139.969 86.6766 145.461 89.0299 152.236 89.0299 159.011 89.0299 164.502 86.6766 164.502 83.7738 164.501 83.4731 164.443 83.1754 164.33 82.8966 163.354 85.3956 158.313 87.2757 152.236 87.2757Z" fill="#000000" fill-opacity="0.1" transform="matrix(1 0 0 1.00601 239.288 150.316)"/><path d="M284.983 65.5362C280.993 65.5342 277.756 68.7676 277.754 72.7581 277.753 75.6302 279.452 78.2304 282.084 79.3815 282.053 78.8267 282.095 78.2704 282.209 77.7266L283.139 73.7878C282.982 73.428 282.903 73.0387 282.908 72.6459 282.908 71.5734 283.527 70.7758 284.301 70.7758 284.963 70.7758 285.274 71.2689 285.274 71.8581 285.274 72.5201 284.851 73.5131 284.636 74.4233 284.483 75.0201 284.843 75.6277 285.44 75.7803 285.55 75.8085 285.664 75.8197 285.777 75.8134 287.144 75.8134 288.068 74.0559 288.068 71.9706 288.068 70.3885 286.999 69.2036 285.062 69.2036 283.174 69.1285 281.582 70.5987 281.507 72.4873 281.504 72.5468 281.504 72.6062 281.504 72.6657 281.483 73.1806 281.653 73.6853 281.981 74.0824 282.105 74.1755 282.147 74.3418 282.084 74.4829 282.047 74.6152 281.971 74.9363 281.935 75.0654 281.915 75.1992 281.79 75.2918 281.657 75.2721 281.628 75.2678 281.6 75.2583 281.574 75.2441 280.564 74.8337 280.094 73.7282 280.094 72.4837 280.094 70.4315 281.825 67.9723 285.258 67.9723 288.015 67.9723 289.832 69.9582 289.832 72.1097 289.832 74.9462 288.253 77.0745 285.933 77.0745 285.23 77.0925 284.567 76.7537 284.169 76.1742 284.169 76.1742 283.748 77.8292 283.659 78.1602 283.492 78.7089 283.247 79.2306 282.931 79.7092 286.768 80.8049 290.767 78.5825 291.863 74.7453 292.958 70.9082 290.736 66.9093 286.899 65.8136 286.276 65.6356 285.631 65.5423 284.983 65.5362Z" fill="#BE000F" transform="matrix(1 0 0 1.00601 239.288 150.316)"/><path d="M265.431 29.6402C264.862 29.8926 264.259 30.0599 263.641 30.1367 264.292 29.7433 264.779 29.1288 265.014 28.4056 264.401 28.77 263.729 29.0263 263.028 29.1636 261.852 27.9041 259.876 27.8372 258.617 29.0141 257.984 29.6053 257.626 30.4326 257.627 31.2985 257.626 31.539 257.653 31.7789 257.706 32.0134 255.194 31.8885 252.853 30.7006 251.268 28.7465 250.443 30.1759 250.869 32.0007 252.241 32.917 251.743 32.9069 251.256 32.7739 250.822 32.5298L250.822 32.5662C250.82 34.0541 251.869 35.3364 253.327 35.6312 253.059 35.7029 252.783 35.7396 252.506 35.7404 252.309 35.7402 252.111 35.7213 251.917 35.6841 252.326 36.9569 253.5 37.8284 254.836 37.8521 253.729 38.7172 252.362 39.1837 250.957 39.1761 250.708 39.1757 250.46 39.1602 250.212 39.1297 251.634 40.0555 253.295 40.5467 254.992 40.5431 260.741 40.5431 263.886 35.7801 263.886 31.646 263.886 31.5103 263.886 31.3779 263.886 31.2455 264.491 30.8056 265.015 30.2622 265.431 29.6402Z" fill="#55ACEE" transform="matrix(1 0 0 1.00601 239.288 150.316)"/><path d="M160.421 21.5541 149.403 21.5541C149.024 21.5541 148.717 21.8609 148.717 22.2393L148.717 33.2546C148.717 33.633 149.024 33.9398 149.403 33.9398L154.904 33.9398 154.904 29.0378 153.424 29.0378 153.424 27.2306 154.904 27.2306 154.904 25.9066C154.904 24.3047 156.013 23.4341 157.442 23.4341 158.128 23.4341 158.862 23.4871 159.031 23.5103L159.031 25.1652 157.893 25.1652C157.118 25.1652 156.969 25.5359 156.969 26.0755L156.969 27.2273 158.819 27.2273 158.578 29.0345 156.969 29.0345 156.969 33.9365 160.415 33.9365C160.792 33.9347 161.097 33.6284 161.097 33.2513L161.097 22.2393C161.097 21.8647 160.796 21.5596 160.421 21.5541Z" fill="#3B5998" transform="matrix(1 0 0 1.00601 239.288 150.316)"/><path d="M196.304 53.4153 196.254 53.1902 191.203 53.1902 191.203 55.2755 194.126 55.2755C193.825 56.7252 192.567 57.3276 191.415 57.3276 190.602 57.3557 189.81 57.0619 189.211 56.5101 187.986 55.2607 187.968 53.2661 189.171 51.9953 189.768 51.4337 190.567 51.1376 191.386 51.1745 192.073 51.1636 192.74 51.4064 193.259 51.8563L194.808 50.3172C193.851 49.4663 192.616 48.9953 191.336 48.9933 188.474 48.9308 186.103 51.2003 186.041 54.0623 186.039 54.1246 186.039 54.187 186.04 54.2494 186.036 55.6019 186.55 56.9046 187.477 57.8903 188.529 58.9395 189.962 59.5175 191.448 59.4923 192.789 59.504 194.076 58.9643 195.007 57.9995 195.912 57.0058 196.401 55.7026 196.374 54.3586 196.376 54.044 196.354 53.7297 196.307 53.4186ZM202.556 53.1935 200.716 53.1935 200.716 51.3565 199.392 51.3565 199.392 53.1935 197.552 53.1935 197.552 54.5175 199.392 54.5175 199.392 56.3545 200.716 56.3545 200.716 54.5175 202.566 54.5175Z" fill="#DD4B39" transform="matrix(1 0 0 1.00601 239.288 150.316)"/><path d="M101.018 64.5895C102.441 64.595 103.593 65.7482 103.597 67.1713L103.597 72.3314C103.596 73.0148 103.323 73.6697 102.839 74.1519 102.359 74.6392 101.702 74.9124 101.018 74.9098L95.8549 74.9098C94.4332 74.9044 93.282 73.7532 93.2765 72.3314L93.2765 67.1713C93.2801 65.7482 94.4319 64.595 95.8549 64.5895L101.018 64.5895M101.018 63.5569 95.8549 63.5569C93.8615 63.5623 92.2475 65.1779 92.2438 67.1713L92.2438 72.3314C92.2493 74.3235 93.8628 75.9371 95.8549 75.9425L101.018 75.9425C103.01 75.9371 104.624 74.3235 104.63 72.3314L104.629 67.1713C104.63 65.1753 103.014 63.5557 101.018 63.5502Z" fill="#E53C5F" transform="matrix(1 0 0 1.00601 239.288 150.316)"/><path d="M101.79 67.1713C101.362 67.1713 101.015 66.8245 101.015 66.3968 101.015 65.969 101.362 65.6222 101.79 65.6222 102.217 65.6222 102.564 65.969 102.564 66.3968 102.566 66.8227 102.222 67.1694 101.796 67.1713 101.794 67.1713 101.792 67.1713 101.79 67.1713ZM98.4367 67.6876C99.5773 67.6876 100.502 68.6123 100.502 69.753 100.502 70.8937 99.5773 71.8184 98.4366 71.8184 97.296 71.8184 96.3713 70.8937 96.3713 69.753 96.3713 69.7519 96.3713 69.7508 96.3713 69.7497 96.3731 68.6103 97.2973 67.6876 98.4366 67.6876M98.4367 66.6549C96.7256 66.6549 95.3386 68.042 95.3386 69.753 95.3386 71.464 96.7256 72.8511 98.4367 72.8511 100.148 72.8511 101.535 71.464 101.535 69.753 101.535 69.7519 101.535 69.7508 101.535 69.7497 101.535 68.0405 100.149 66.6549 98.44 66.6549 98.4389 66.6549 98.4378 66.6549 98.4367 66.6549Z" fill="#E53C5F" transform="matrix(1 0 0 1.00601 239.288 150.316)"/><path d="M245.198 95.3253 234.864 95.3253C234.308 95.2974 233.834 95.7262 233.806 96.2831 233.806 96.286 233.805 96.2889 233.805 96.2918L233.805 106.649C233.821 107.227 234.286 107.692 234.864 107.708L245.195 107.708C245.759 107.684 246.201 107.213 246.188 106.649L246.188 96.2985C246.201 95.774 245.786 95.3381 245.262 95.3248 245.241 95.3243 245.219 95.3244 245.198 95.3253ZM237.651 105.656 235.877 105.656 235.877 100.138 237.651 100.138ZM236.824 99.3006 236.824 99.3006C236.298 99.2896 235.88 98.854 235.891 98.3277 235.902 97.8013 236.337 97.3835 236.864 97.3945 237.382 97.4053 237.797 97.8287 237.797 98.3473 237.821 98.8494 237.434 99.276 236.931 99.3001 236.889 99.3021 236.846 99.3012 236.804 99.2972ZM244.132 105.656 242.351 105.656 242.351 102.637C242.351 101.915 242.093 101.422 241.451 101.422 241.039 101.427 240.674 101.693 240.544 102.084 240.496 102.223 240.475 102.371 240.481 102.518L240.481 105.662 238.707 105.662 238.707 100.138 240.481 100.138 240.481 100.906C240.811 100.336 241.425 99.992 242.083 100.009 243.245 100.009 244.126 100.777 244.126 102.432Z" fill="#007BB6" transform="matrix(1 0 0 1.00601 239.288 150.316)"/><path d="M140.443 130.271 141.32 131.857 169.861 125.806 168.732 124.012 140.443 130.271Z" fill="#464A5F" transform="matrix(1 0 0 1.00601 270.14 172)"/><path d="M167.875 153.368 163.552 127.729C163.479 127.282 163.781 126.86 164.229 126.786 164.244 126.783 164.259 126.781 164.274 126.779L197.042 123.284C197.482 123.237 197.879 123.548 197.939 123.986L201.004 146.444Z" fill="#464A5F" transform="matrix(1 0 0 1.00601 239.288 150.316)"/><path d="M167.875 153.368 163.552 127.729C163.479 127.282 163.781 126.86 164.229 126.786 164.244 126.783 164.259 126.781 164.274 126.779L197.042 123.284C197.482 123.237 197.879 123.548 197.939 123.986L201.004 146.444Z" fill="#000000" fill-opacity="0.1" transform="matrix(1 0 0 1.00601 239.288 150.316)"/><path d="M168.375 153.368 164.056 127.729C163.98 127.284 164.279 126.862 164.724 126.786 164.741 126.783 164.757 126.781 164.774 126.779L197.542 123.284C197.981 123.237 198.379 123.548 198.439 123.986L201.501 146.444Z" fill="#464A5F" transform="matrix(1 0 0 1.00601 239.288 150.316)"/><path d="M135.478 107.32 139.026 129.103 168.65 123.009 165.896 103.65 135.478 107.32Z" fill="#6C63FF" transform="matrix(1 0 0 1.00601 270.14 172)"/><path d="M172.006 152.918 171.797 152.497 167.875 153.375 177.865 168.64C178.176 169.116 178.762 169.332 179.308 169.173L214.393 158.975C215.078 158.777 215.473 158.062 215.276 157.377 215.198 157.109 215.036 156.873 214.813 156.704L201.216 146.407 198.379 147.069 198.505 147.36Z" fill="#9C9CA1" transform="matrix(1 0 0 1.00601 239.288 150.316)"/><path d="M172.006 152.918 171.797 152.497 167.875 153.375 177.865 168.64C178.176 169.116 178.762 169.332 179.308 169.173L214.393 158.975C215.078 158.777 215.473 158.062 215.276 157.377 215.198 157.109 215.036 156.873 214.813 156.704L201.216 146.407 198.379 147.069 198.505 147.36Z" fill="#000000" fill-opacity="0.1" transform="matrix(1 0 0 1.00601 239.288 150.316)"/><path d="M172.506 152.918 172.297 152.497 168.375 153.375 178.364 168.64C178.675 169.116 179.262 169.332 179.807 169.173L214.892 158.975C215.577 158.776 215.971 158.06 215.772 157.375 215.695 157.108 215.532 156.872 215.31 156.704L201.712 146.407 198.876 147.069 199.002 147.36Z" fill="#9C9CA1" transform="matrix(1 0 0 1.00601 239.288 150.316)"/><path d="M188.155 159.164 199.429 156.228C199.5 156.21 199.576 156.228 199.63 156.277L204.638 160.822C204.727 160.903 204.733 161.041 204.652 161.13 204.625 161.16 204.591 161.181 204.552 161.193L192.637 164.714C192.554 164.738 192.466 164.711 192.412 164.645L188.052 159.511C187.976 159.415 187.993 159.276 188.089 159.2 188.109 159.184 188.131 159.172 188.155 159.164Z" fill="#000000" fill-opacity="0.1" transform="matrix(1 0 0 1.00601 239.288 150.316)"/><path d="M188.407 158.915 199.68 155.986C199.752 155.967 199.827 155.986 199.882 156.036L204.883 160.577C204.972 160.658 204.978 160.797 204.897 160.886 204.87 160.915 204.835 160.936 204.797 160.948L192.882 164.469C192.798 164.493 192.709 164.465 192.653 164.4L188.297 159.266C188.219 159.177 188.228 159.041 188.317 158.962 188.342 158.94 188.373 158.924 188.407 158.915Z" fill="#939498" transform="matrix(1 0 0 1.00601 239.288 150.316)"/><path d="M172.526 154.791 173.032 155.605C173.054 155.639 173.095 155.656 173.135 155.648L174.846 155.268C174.899 155.254 174.93 155.199 174.916 155.146 174.913 155.135 174.909 155.125 174.902 155.116L174.336 154.328C174.313 154.297 174.275 154.282 174.237 154.288L172.582 154.642C172.529 154.657 172.499 154.712 172.514 154.765 172.516 154.774 172.52 154.783 172.526 154.791Z" fill="#464A5F" transform="matrix(1 0 0 1.00601 239.288 150.316)"/><path d="M174.763 154.321 175.266 155.135C175.289 155.171 175.331 155.188 175.372 155.178L177.08 154.798C177.132 154.787 177.165 154.736 177.154 154.684 177.151 154.67 177.145 154.657 177.136 154.646L176.574 153.858C176.551 153.827 176.512 153.813 176.474 153.821L174.819 154.176C174.768 154.189 174.737 154.241 174.75 154.292 174.753 154.303 174.757 154.312 174.763 154.321Z" fill="#464A5F" transform="matrix(1 0 0 1.00601 239.288 150.316)"/><path d="M176.928 153.851 177.434 154.665C177.455 154.701 177.497 154.718 177.537 154.708L179.248 154.328C179.3 154.316 179.332 154.264 179.319 154.212 179.317 154.2 179.311 154.189 179.304 154.179L178.735 153.388C178.712 153.357 178.673 153.343 178.636 153.351L176.981 153.706C176.93 153.72 176.901 153.774 176.915 153.824 176.918 153.834 176.922 153.843 176.928 153.851Z" fill="#464A5F" transform="matrix(1 0 0 1.00601 239.288 150.316)"/><path d="M179.066 153.388 179.566 154.192C179.589 154.23 179.635 154.249 179.678 154.238L181.373 153.861C181.429 153.846 181.463 153.788 181.447 153.731 181.444 153.72 181.439 153.709 181.433 153.699L180.87 152.918C180.847 152.883 180.805 152.866 180.764 152.875L179.109 153.226C179.055 153.248 179.03 153.31 179.052 153.364 179.056 153.373 179.06 153.381 179.066 153.388Z" fill="#464A5F" transform="matrix(1 0 0 1.00601 239.288 150.316)"/><path d="M178.891 154.632 179.397 155.45C179.42 155.483 179.46 155.5 179.5 155.493L181.208 155.112C181.259 155.101 181.292 155.05 181.281 154.998 181.279 154.984 181.272 154.971 181.264 154.96L180.701 154.172C180.679 154.141 180.64 154.125 180.602 154.132L178.947 154.487C178.896 154.5 178.865 154.552 178.878 154.604 178.881 154.614 178.885 154.623 178.891 154.632Z" fill="#464A5F" transform="matrix(1 0 0 1.00601 239.288 150.316)"/><path d="M176.676 155.102 177.183 155.917C177.206 155.952 177.247 155.97 177.289 155.963L178.997 155.582C179.048 155.571 179.081 155.52 179.07 155.468 179.067 155.454 179.061 155.441 179.053 155.43L178.487 154.642C178.465 154.61 178.426 154.594 178.387 154.602L176.733 154.957C176.68 154.973 176.651 155.028 176.667 155.081 176.669 155.088 176.672 155.095 176.676 155.102Z" fill="#464A5F" transform="matrix(1 0 0 1.00601 239.288 150.316)"/><path d="M178.116 156.105 178.622 156.919C178.644 156.956 178.687 156.973 178.728 156.962L180.436 156.582C180.488 156.571 180.521 156.52 180.51 156.468 180.507 156.454 180.501 156.441 180.493 156.43L179.927 155.642C179.904 155.61 179.865 155.596 179.827 155.605L178.172 155.956C178.12 155.971 178.089 156.026 178.104 156.079 178.107 156.088 178.111 156.097 178.116 156.105Z" fill="#464A5F" transform="matrix(1 0 0 1.00601 239.288 150.316)"/><path d="M180.152 156.979 180.658 157.797C180.68 157.831 180.721 157.849 180.761 157.84L182.469 157.459C182.522 157.446 182.555 157.393 182.543 157.34 182.54 157.328 182.535 157.317 182.528 157.307L181.962 156.519C181.94 156.487 181.901 156.472 181.863 156.479L180.208 156.833C180.157 156.847 180.126 156.899 180.139 156.95 180.142 156.96 180.146 156.97 180.152 156.979Z" fill="#464A5F" transform="matrix(1 0 0 1.00601 239.288 150.316)"/><path d="M180.506 158.399 181.323 159.422C181.347 159.451 181.386 159.464 181.423 159.455L183.144 159.008C183.197 158.993 183.228 158.939 183.213 158.886 183.21 158.874 183.204 158.862 183.197 158.852L182.349 157.82C182.326 157.79 182.287 157.777 182.25 157.787L180.555 158.243C180.503 158.259 180.473 158.315 180.49 158.367 180.493 158.379 180.499 158.389 180.506 158.399Z" fill="#464A5F" transform="matrix(1 0 0 1.00601 239.288 150.316)"/><path d="M182.757 157.833 183.597 158.889C183.621 158.919 183.66 158.931 183.697 158.922L185.944 158.3C185.996 158.284 186.026 158.228 186.01 158.176 186.006 158.164 186.001 158.154 185.994 158.144L185.146 157.111C185.123 157.082 185.084 157.069 185.047 157.078L182.81 157.681C182.758 157.693 182.726 157.745 182.739 157.797 182.742 157.81 182.748 157.822 182.757 157.833Z" fill="#464A5F" transform="matrix(1 0 0 1.00601 239.288 150.316)"/><path d="M178.305 158.942 179.122 159.965C179.146 159.994 179.185 160.007 179.222 159.998L180.943 159.551C180.996 159.536 181.027 159.482 181.012 159.429 181.009 159.417 181.003 159.405 180.996 159.395L180.148 158.363C180.125 158.333 180.086 158.32 180.049 158.329L178.354 158.786C178.302 158.802 178.272 158.858 178.288 158.91 178.292 158.922 178.297 158.932 178.305 158.942Z" fill="#464A5F" transform="matrix(1 0 0 1.00601 239.288 150.316)"/><path d="M175.978 159.538 176.795 160.564C176.819 160.593 176.858 160.606 176.895 160.597L178.616 160.15C178.669 160.135 178.7 160.081 178.685 160.028 178.682 160.016 178.676 160.004 178.669 159.994L177.825 158.962C177.8 158.932 177.76 158.919 177.722 158.929L176.028 159.385C175.976 159.399 175.946 159.452 175.96 159.503 175.964 159.516 175.97 159.527 175.978 159.538Z" fill="#464A5F" transform="matrix(1 0 0 1.00601 239.288 150.316)"/><path d="M181.201 152.888 181.697 153.692C181.721 153.73 181.766 153.748 181.81 153.739L183.505 153.361C183.56 153.349 183.595 153.294 183.583 153.239 183.579 153.224 183.573 153.211 183.564 153.199L183.008 152.421C182.984 152.388 182.942 152.372 182.902 152.382L181.267 152.732C181.212 152.744 181.176 152.798 181.187 152.853 181.189 152.866 181.194 152.877 181.201 152.888Z" fill="#464A5F" transform="matrix(1 0 0 1.00601 239.288 150.316)"/><path d="M181.052 154.139 181.548 154.943C181.572 154.981 181.617 155 181.661 154.99L183.356 154.612C183.411 154.6 183.446 154.545 183.434 154.49 183.43 154.476 183.424 154.462 183.415 154.45L182.859 153.676C182.836 153.641 182.794 153.624 182.753 153.633L181.118 153.984C181.063 153.995 181.027 154.049 181.038 154.105 181.041 154.117 181.045 154.129 181.052 154.139Z" fill="#464A5F" transform="matrix(1 0 0 1.00601 239.288 150.316)"/><path d="M183.276 152.418 183.773 153.222C183.797 153.26 183.842 153.278 183.885 153.269L185.58 152.891C185.635 152.879 185.67 152.824 185.658 152.769 185.655 152.754 185.648 152.741 185.639 152.729L185.083 151.951C185.059 151.919 185.018 151.903 184.978 151.912L183.342 152.256C183.286 152.265 183.248 152.318 183.258 152.373 183.26 152.39 183.267 152.405 183.276 152.418Z" fill="#464A5F" transform="matrix(1 0 0 1.00601 239.288 150.316)"/><path d="M189.347 151.094 190.048 151.842C190.07 151.862 190.099 151.87 190.128 151.865L191.64 151.514C191.685 151.505 191.714 151.462 191.706 151.417 191.702 151.4 191.693 151.384 191.68 151.372L190.889 150.624C190.867 150.605 190.838 150.598 190.81 150.604L189.386 150.955C189.342 150.965 189.314 151.01 189.325 151.054 189.328 151.069 189.336 151.083 189.347 151.094Z" fill="#464A5F" transform="matrix(1 0 0 1.00601 239.288 150.316)"/><path d="M191.286 150.647 191.991 151.392C192.01 151.415 192.041 151.425 192.071 151.418L193.583 151.068C193.628 151.059 193.657 151.015 193.649 150.97 193.646 150.956 193.639 150.943 193.63 150.932L192.839 150.184C192.817 150.164 192.787 150.157 192.759 150.164L191.336 150.515C191.29 150.526 191.262 150.573 191.274 150.619 191.276 150.629 191.28 150.639 191.286 150.647Z" fill="#464A5F" transform="matrix(1 0 0 1.00601 239.288 150.316)"/><path d="M189.386 152.305 190.091 153.053C190.112 153.074 190.142 153.083 190.171 153.077L191.683 152.726C191.728 152.717 191.757 152.673 191.749 152.629 191.745 152.611 191.736 152.595 191.723 152.583L190.929 151.835C190.909 151.816 190.88 151.808 190.853 151.816L189.429 152.166C189.383 152.179 189.356 152.226 189.369 152.272 189.372 152.284 189.378 152.296 189.386 152.305Z" fill="#464A5F" transform="matrix(1 0 0 1.00601 239.288 150.316)"/><path d="M187.397 152.769 188.059 153.48C188.084 153.508 188.122 153.519 188.158 153.51L189.625 153.179C189.68 153.166 189.714 153.111 189.701 153.056 189.697 153.036 189.686 153.018 189.671 153.004L188.913 152.289C188.889 152.262 188.851 152.252 188.817 152.262L187.44 152.593C187.385 152.608 187.352 152.664 187.367 152.718 187.372 152.738 187.382 152.755 187.397 152.769Z" fill="#464A5F" transform="matrix(1 0 0 1.00601 239.288 150.316)"/><path d="M188.91 155.02 189.572 155.734C189.597 155.762 189.635 155.773 189.671 155.764L191.137 155.433C191.194 155.418 191.228 155.36 191.213 155.304 191.208 155.285 191.198 155.268 191.184 155.255L190.426 154.54C190.4 154.515 190.363 154.507 190.33 154.516L188.953 154.847C188.897 154.867 188.868 154.927 188.887 154.982 188.892 154.996 188.9 155.009 188.91 155.02Z" fill="#464A5F" transform="matrix(1 0 0 1.00601 239.288 150.316)"/><path d="M186.834 155.49 187.496 156.204C187.522 156.23 187.56 156.242 187.596 156.234L189.059 155.903C189.114 155.892 189.15 155.838 189.139 155.782 189.134 155.761 189.124 155.742 189.108 155.728L188.35 155.013C188.324 154.99 188.289 154.98 188.254 154.986L186.874 155.317C186.819 155.338 186.792 155.399 186.812 155.454 186.817 155.467 186.825 155.479 186.834 155.49Z" fill="#464A5F" transform="matrix(1 0 0 1.00601 239.288 150.316)"/><path d="M184.726 156.013 185.388 156.727C185.414 156.753 185.451 156.764 185.487 156.757L186.954 156.426C187.008 156.442 187.065 156.41 187.081 156.355 187.097 156.3 187.065 156.243 187.01 156.228L186.252 155.513C186.227 155.487 186.19 155.477 186.156 155.486L184.779 155.817C184.723 155.812 184.672 155.853 184.667 155.909 184.663 155.953 184.686 155.994 184.726 156.013Z" fill="#464A5F" transform="matrix(1 0 0 1.00601 239.288 150.316)"/><path d="M182.498 156.453 183.18 157.178C183.204 157.202 183.24 157.213 183.273 157.204L184.752 156.873C184.806 156.859 184.838 156.805 184.824 156.752 184.82 156.735 184.811 156.72 184.799 156.708L184.028 155.979C184.003 155.958 183.97 155.95 183.938 155.956L182.545 156.287C182.493 156.297 182.459 156.347 182.468 156.4 182.472 156.42 182.483 156.439 182.498 156.453Z" fill="#464A5F" transform="matrix(1 0 0 1.00601 239.288 150.316)"/><path d="M186.814 154.185 187.476 154.9C187.501 154.928 187.54 154.94 187.576 154.93L189.039 154.599C189.096 154.586 189.131 154.529 189.117 154.472 189.113 154.452 189.103 154.434 189.088 154.42L188.334 153.699C188.308 153.675 188.272 153.667 188.238 153.676L186.858 154.007C186.802 154.019 186.768 154.074 186.78 154.13 186.785 154.151 186.797 154.171 186.814 154.185Z" fill="#464A5F" transform="matrix(1 0 0 1.00601 239.288 150.316)"/><path d="M184.789 154.655 185.451 155.37C185.477 155.396 185.514 155.408 185.55 155.4L187.016 155.069C187.072 155.056 187.106 155.001 187.093 154.946 187.089 154.926 187.078 154.908 187.063 154.894L186.305 154.179C186.279 154.155 186.243 154.145 186.209 154.152L184.832 154.483C184.777 154.502 184.747 154.563 184.766 154.618 184.771 154.632 184.779 154.645 184.789 154.655Z" fill="#464A5F" transform="matrix(1 0 0 1.00601 239.288 150.316)"/><path d="M182.621 155.116 183.283 155.827C183.307 155.856 183.345 155.868 183.382 155.86L184.845 155.529C184.901 155.518 184.936 155.464 184.925 155.408 184.921 155.387 184.91 155.368 184.895 155.354L184.137 154.639C184.112 154.613 184.075 154.603 184.041 154.612L182.661 154.943C182.607 154.961 182.577 155.018 182.594 155.072 182.599 155.089 182.608 155.104 182.621 155.116Z" fill="#464A5F" transform="matrix(1 0 0 1.00601 239.288 150.316)"/><path d="M180.39 155.629 181.072 156.353C181.097 156.378 181.133 156.388 181.168 156.38L182.647 156.049C182.7 156.034 182.731 155.979 182.715 155.926 182.711 155.91 182.702 155.895 182.69 155.883L181.922 155.159C181.899 155.135 181.865 155.126 181.833 155.132L180.44 155.463C180.386 155.475 180.353 155.528 180.365 155.582 180.369 155.599 180.378 155.616 180.39 155.629Z" fill="#464A5F" transform="matrix(1 0 0 1.00601 239.288 150.316)"/><path d="M188.9 153.696 189.562 154.411C189.588 154.437 189.625 154.448 189.661 154.44L191.124 154.109C191.18 154.098 191.215 154.044 191.204 153.988 191.2 153.967 191.189 153.948 191.174 153.934L190.416 153.219C190.39 153.196 190.354 153.186 190.32 153.192L188.939 153.523C188.885 153.544 188.857 153.605 188.877 153.66 188.882 153.673 188.89 153.685 188.9 153.696Z" fill="#464A5F" transform="matrix(1 0 0 1.00601 239.288 150.316)"/><path d="M185.355 153.288 186.017 154.003C186.042 154.031 186.08 154.043 186.116 154.033L187.579 153.702C187.634 153.689 187.669 153.634 187.656 153.579 187.651 153.559 187.641 153.541 187.625 153.527L186.871 152.812C186.845 152.789 186.809 152.779 186.775 152.785L185.395 153.116C185.341 153.133 185.311 153.191 185.328 153.245 185.333 153.262 185.342 153.277 185.355 153.288Z" fill="#464A5F" transform="matrix(1 0 0 1.00601 239.288 150.316)"/><path d="M193.16 150.171 193.898 150.955C193.913 150.971 193.936 150.977 193.957 150.972L195.52 150.611C195.553 150.603 195.574 150.569 195.566 150.535 195.564 150.524 195.558 150.513 195.549 150.505L194.719 149.72C194.7 149.711 194.678 149.711 194.659 149.72L193.189 150.084C193.159 150.096 193.143 150.131 193.155 150.161 193.156 150.165 193.158 150.168 193.16 150.171Z" fill="#464A5F" transform="matrix(1 0 0 1.00601 239.288 150.316)"/><path d="M195.046 149.753 195.784 150.538C195.801 150.551 195.823 150.557 195.844 150.554L197.406 150.194C197.44 150.186 197.461 150.152 197.453 150.118 197.45 150.107 197.444 150.096 197.436 150.088L196.609 149.303C196.594 149.288 196.573 149.282 196.552 149.287L195.079 149.651C195.046 149.659 195.025 149.693 195.032 149.726 195.035 149.736 195.039 149.746 195.046 149.753Z" fill="#464A5F" transform="matrix(1 0 0 1.00601 239.288 150.316)"/><path d="M196.989 149.307 197.651 150.035C197.671 150.046 197.695 150.046 197.714 150.035L199.17 149.638C199.203 149.627 199.221 149.591 199.211 149.558 199.207 149.548 199.201 149.539 199.194 149.532L198.442 148.896C198.425 148.889 198.406 148.889 198.389 148.896L197.009 149.201C196.977 149.209 196.958 149.242 196.966 149.273 196.97 149.287 196.978 149.299 196.989 149.307Z" fill="#464A5F" transform="matrix(1 0 0 1.00601 239.288 150.316)"/><path d="M199.021 149.985 199.683 150.713C199.698 150.73 199.722 150.737 199.743 150.73L201.199 150.333C201.232 150.326 201.252 150.294 201.245 150.262 201.242 150.248 201.234 150.235 201.223 150.227L200.484 149.608C200.468 149.6 200.448 149.6 200.431 149.608L199.055 149.912C199.028 149.926 199.014 149.956 199.021 149.985Z" fill="#464A5F" transform="matrix(1 0 0 1.00601 239.288 150.316)"/><path d="M198.777 151.306 199.415 151.998C199.437 152.018 199.468 152.027 199.498 152.021L200.901 151.637C200.946 151.627 200.974 151.582 200.964 151.538 200.96 151.519 200.949 151.503 200.935 151.491L200.223 150.892C200.202 150.876 200.176 150.869 200.15 150.872L198.826 151.167C198.78 151.176 198.749 151.221 198.759 151.268 198.761 151.282 198.768 151.295 198.777 151.306Z" fill="#464A5F" transform="matrix(1 0 0 1.00601 239.288 150.316)"/><path d="M197.118 152.984 197.757 153.676C197.777 153.7 197.81 153.709 197.84 153.699L199.256 153.315C199.301 153.303 199.327 153.258 199.315 153.214 199.311 153.198 199.302 153.183 199.29 153.173L198.565 152.587C198.544 152.57 198.517 152.564 198.492 152.57L197.168 152.865C197.124 152.877 197.099 152.923 197.111 152.967 197.113 152.973 197.115 152.979 197.118 152.984Z" fill="#464A5F" transform="matrix(1 0 0 1.00601 239.288 150.316)"/><path d="M195.126 153.507 195.765 154.199C195.787 154.219 195.818 154.228 195.847 154.222L197.251 153.838C197.295 153.828 197.323 153.784 197.313 153.739 197.309 153.72 197.299 153.704 197.284 153.692L196.572 153.093C196.552 153.077 196.525 153.07 196.499 153.073L195.175 153.368C195.129 153.377 195.098 153.423 195.108 153.469 195.111 153.483 195.117 153.496 195.126 153.507Z" fill="#464A5F" transform="matrix(1 0 0 1.00601 239.288 150.316)"/><path d="M198.995 152.494 199.634 153.186C199.654 153.209 199.687 153.218 199.717 153.209L201.123 152.825C201.167 152.812 201.192 152.766 201.179 152.722 201.174 152.707 201.165 152.693 201.153 152.683L200.441 152.08C200.421 152.064 200.394 152.057 200.369 152.064L199.045 152.355C198.998 152.364 198.968 152.41 198.977 152.456 198.98 152.47 198.986 152.483 198.995 152.494Z" fill="#464A5F" transform="matrix(1 0 0 1.00601 239.288 150.316)"/><path d="M198.671 153.987 199.634 154.851C199.655 154.87 199.686 154.877 199.713 154.867L201.107 154.473C201.151 154.462 201.177 154.416 201.165 154.372 201.161 154.356 201.152 154.342 201.14 154.331L200.1 153.421C200.076 153.406 200.045 153.406 200.021 153.421L198.697 153.861C198.656 153.882 198.64 153.932 198.661 153.972 198.664 153.978 198.667 153.982 198.671 153.987Z" fill="#464A5F" transform="matrix(1 0 0 1.00601 239.288 150.316)"/><path d="M195.285 150.932 195.947 151.66C195.961 151.677 195.984 151.684 196.006 151.68L197.462 151.283C197.496 151.273 197.516 151.239 197.506 151.205 197.503 151.193 197.496 151.182 197.486 151.173L196.734 150.541C196.718 150.532 196.698 150.532 196.681 150.541L195.304 150.842C195.275 150.86 195.265 150.899 195.283 150.929 195.283 150.93 195.284 150.931 195.285 150.932Z" fill="#464A5F" transform="matrix(1 0 0 1.00601 239.288 150.316)"/><path d="M193.414 151.389 194.053 152.08C194.075 152.102 194.106 152.111 194.136 152.104L195.543 151.72C195.587 151.706 195.611 151.66 195.598 151.617 195.594 151.601 195.585 151.588 195.573 151.577L194.861 150.975C194.841 150.958 194.814 150.952 194.788 150.958L193.464 151.25C193.418 151.259 193.387 151.304 193.397 151.351 193.399 151.365 193.405 151.378 193.414 151.389Z" fill="#464A5F" transform="matrix(1 0 0 1.00601 239.288 150.316)"/><path d="M193.031 152.726 193.669 153.414C193.689 153.438 193.722 153.447 193.752 153.437L195.155 153.057C195.201 153.043 195.227 152.995 195.213 152.949 195.208 152.935 195.2 152.921 195.189 152.911L194.474 152.309C194.453 152.292 194.426 152.286 194.401 152.292L193.077 152.587C193.032 152.594 193.001 152.637 193.008 152.682 193.011 152.698 193.019 152.714 193.031 152.726Z" fill="#464A5F" transform="matrix(1 0 0 1.00601 239.288 150.316)"/><path d="M191.048 153.206 191.687 153.894C191.707 153.918 191.74 153.927 191.769 153.917L193.173 153.537C193.218 153.523 193.244 153.475 193.23 153.429 193.225 153.415 193.217 153.401 193.206 153.391L192.491 152.789C192.472 152.772 192.446 152.766 192.421 152.772L191.098 153.067C191.052 153.072 191.02 153.114 191.026 153.159 191.028 153.177 191.036 153.193 191.048 153.206Z" fill="#464A5F" transform="matrix(1 0 0 1.00601 239.288 150.316)"/><path d="M191.402 151.839 192.041 152.527C192.061 152.551 192.094 152.56 192.124 152.55L193.527 152.17C193.572 152.156 193.598 152.108 193.584 152.062 193.58 152.048 193.571 152.034 193.56 152.024L192.848 151.425C192.828 151.409 192.802 151.402 192.776 151.405L191.452 151.7C191.406 151.705 191.374 151.747 191.38 151.792 191.382 151.81 191.39 151.826 191.402 151.839Z" fill="#464A5F" transform="matrix(1 0 0 1.00601 239.288 150.316)"/><path d="M193.06 153.954 193.699 154.646C193.719 154.67 193.752 154.679 193.782 154.669L195.185 154.288C195.23 154.278 195.258 154.234 195.248 154.189 195.244 154.171 195.233 154.154 195.218 154.142L194.507 153.54C194.486 153.523 194.459 153.517 194.434 153.523L193.11 153.818C193.065 153.825 193.034 153.868 193.041 153.913 193.044 153.928 193.05 153.942 193.06 153.954Z" fill="#464A5F" transform="matrix(1 0 0 1.00601 239.288 150.316)"/><path d="M191.114 154.483 191.72 155.145C191.746 155.172 191.785 155.184 191.822 155.175L193.176 154.804C193.231 154.79 193.264 154.735 193.25 154.68 193.245 154.658 193.233 154.64 193.216 154.626L192.554 154.056C192.53 154.034 192.496 154.025 192.465 154.033L191.18 154.318C191.124 154.326 191.085 154.377 191.093 154.434 191.095 154.452 191.103 154.469 191.114 154.483Z" fill="#464A5F" transform="matrix(1 0 0 1.00601 239.288 150.316)"/><path d="M197.218 150.442 197.88 151.17C197.895 151.187 197.919 151.195 197.942 151.19L199.399 150.793C199.432 150.784 199.452 150.749 199.443 150.715 199.439 150.703 199.432 150.692 199.422 150.684L198.671 150.051C198.654 150.042 198.634 150.042 198.618 150.051L197.241 150.356C197.211 150.371 197.199 150.406 197.214 150.436 197.215 150.438 197.216 150.44 197.218 150.442Z" fill="#464A5F" transform="matrix(1 0 0 1.00601 239.288 150.316)"/><path d="M196.94 151.753 197.578 152.444C197.598 152.468 197.631 152.478 197.661 152.468L199.064 152.087C199.11 152.073 199.136 152.025 199.122 151.98 199.117 151.965 199.109 151.952 199.098 151.941L198.383 151.339C198.362 151.322 198.335 151.316 198.31 151.322L196.986 151.617C196.942 151.622 196.911 151.661 196.916 151.705 196.918 151.723 196.927 151.74 196.94 151.753Z" fill="#464A5F" transform="matrix(1 0 0 1.00601 239.288 150.316)"/><path d="M195.043 152.276 195.682 152.967C195.703 152.99 195.735 152.999 195.765 152.991L197.168 152.607C197.212 152.595 197.238 152.55 197.227 152.505 197.222 152.489 197.213 152.475 197.201 152.464L196.486 151.862C196.467 151.845 196.441 151.839 196.417 151.845L195.093 152.137C195.046 152.146 195.016 152.191 195.025 152.238 195.028 152.252 195.034 152.265 195.043 152.276Z" fill="#464A5F" transform="matrix(1 0 0 1.00601 239.288 150.316)"/><path d="M187.364 151.521 188.069 152.256C188.089 152.278 188.12 152.287 188.148 152.279L189.661 151.931C189.706 151.921 189.733 151.877 189.723 151.832 189.719 151.815 189.71 151.8 189.697 151.789L188.906 151.041C188.885 151.021 188.856 151.012 188.827 151.018L187.404 151.372C187.358 151.377 187.326 151.418 187.331 151.463 187.333 151.486 187.345 151.507 187.364 151.521Z" fill="#464A5F" transform="matrix(1 0 0 1.00601 239.288 150.316)"/><path d="M185.355 152.017 186.017 152.729C186.041 152.758 186.08 152.769 186.116 152.759L187.582 152.428C187.638 152.415 187.672 152.36 187.659 152.305 187.655 152.285 187.644 152.266 187.629 152.252L186.871 151.538C186.847 151.511 186.809 151.5 186.775 151.511L185.398 151.842C185.343 151.856 185.31 151.912 185.324 151.967 185.329 151.987 185.34 152.004 185.355 152.017Z" fill="#464A5F" transform="matrix(1 0 0 1.00601 239.288 150.316)"/><path d="M183.18 153.692 183.68 154.497C183.704 154.534 183.749 154.553 183.793 154.543L185.484 154.166C185.541 154.152 185.576 154.095 185.562 154.038 185.559 154.025 185.554 154.014 185.547 154.003L184.991 153.226C184.967 153.192 184.925 153.177 184.885 153.186L183.23 153.537C183.176 153.556 183.149 153.614 183.168 153.668 183.171 153.676 183.175 153.685 183.18 153.692Z" fill="#464A5F" transform="matrix(1 0 0 1.00601 239.288 150.316)"/><path d="M172.089 153.99 173.76 153.603C173.798 153.596 173.836 153.61 173.86 153.639L174.154 154.027C174.186 154.069 174.178 154.129 174.136 154.161 174.125 154.17 174.112 154.176 174.098 154.179L172.367 154.573C172.325 154.583 172.282 154.564 172.261 154.526L172.026 154.126C172.004 154.076 172.026 154.017 172.076 153.995 172.08 153.993 172.084 153.991 172.089 153.99Z" fill="#464A5F" transform="matrix(1 0 0 1.00601 239.288 150.316)"/><path d="M174.389 153.49 176.044 153.103C176.081 153.096 176.12 153.11 176.143 153.14L176.438 153.527C176.47 153.569 176.462 153.629 176.42 153.661 176.409 153.67 176.396 153.676 176.382 153.679L174.651 154.083C174.609 154.093 174.566 154.074 174.545 154.036L174.31 153.633C174.284 153.586 174.301 153.528 174.347 153.502 174.36 153.495 174.374 153.491 174.389 153.49Z" fill="#464A5F" transform="matrix(1 0 0 1.00601 239.288 150.316)"/><path d="M176.61 153.014 178.265 152.626C178.302 152.618 178.341 152.632 178.364 152.663L178.659 153.047C178.692 153.091 178.682 153.153 178.638 153.186 178.628 153.194 178.615 153.199 178.603 153.202L176.872 153.606C176.83 153.615 176.787 153.596 176.766 153.56L176.531 153.156C176.505 153.11 176.522 153.051 176.568 153.026 176.581 153.019 176.595 153.014 176.61 153.014Z" fill="#464A5F" transform="matrix(1 0 0 1.00601 239.288 150.316)"/><path d="M178.771 152.521 180.426 152.133C180.464 152.124 180.503 152.139 180.526 152.17L180.82 152.557C180.851 152.602 180.84 152.664 180.795 152.695 180.785 152.702 180.775 152.706 180.764 152.709L179.066 153.113C179.024 153.123 178.981 153.104 178.96 153.067L178.725 152.663C178.696 152.619 178.708 152.559 178.753 152.53 178.759 152.526 178.765 152.523 178.771 152.521Z" fill="#464A5F" transform="matrix(1 0 0 1.00601 239.288 150.316)"/><path d="M180.976 152.034 182.631 151.65C182.67 151.642 182.711 151.656 182.737 151.686L183.021 152.064C183.056 152.109 183.047 152.173 183.002 152.208 182.99 152.216 182.976 152.223 182.962 152.226L181.244 152.626C181.2 152.636 181.154 152.616 181.131 152.577L180.903 152.186C180.876 152.134 180.897 152.07 180.949 152.044 180.957 152.039 180.966 152.036 180.976 152.034Z" fill="#464A5F" transform="matrix(1 0 0 1.00601 239.288 150.316)"/><path d="M183.114 151.594 184.769 151.21C184.809 151.201 184.851 151.216 184.875 151.25L185.16 151.624C185.194 151.669 185.185 151.733 185.14 151.767 185.128 151.776 185.114 151.783 185.1 151.786L183.382 152.186C183.338 152.195 183.293 152.175 183.27 152.137L183.045 151.746C183.016 151.697 183.033 151.634 183.082 151.606 183.092 151.6 183.103 151.596 183.114 151.594Z" fill="#464A5F" transform="matrix(1 0 0 1.00601 239.288 150.316)"/><path d="M185.203 151.154 186.735 150.78C186.771 150.771 186.809 150.783 186.834 150.809L187.132 151.124C187.172 151.162 187.173 151.225 187.135 151.264 187.121 151.279 187.102 151.289 187.083 151.293L185.567 151.673C185.532 151.683 185.495 151.673 185.471 151.647L185.14 151.316C185.106 151.27 185.115 151.206 185.16 151.172 185.173 151.163 185.187 151.156 185.203 151.154Z" fill="#464A5F" transform="matrix(1 0 0 1.00601 239.288 150.316)"/><path d="M187.235 150.684 188.814 150.3C188.842 150.294 188.872 150.303 188.893 150.323L189.224 150.654C189.256 150.686 189.256 150.739 189.224 150.771 189.213 150.782 189.199 150.789 189.184 150.793L187.625 151.183C187.597 151.191 187.566 151.182 187.546 151.16L187.198 150.806C187.173 150.768 187.183 150.717 187.221 150.691 187.225 150.688 187.23 150.686 187.235 150.684Z" fill="#464A5F" transform="matrix(1 0 0 1.00601 239.288 150.316)"/><path d="M189.261 150.207 190.839 149.823C190.868 149.817 190.898 149.825 190.919 149.846L191.25 150.177C191.281 150.213 191.277 150.267 191.242 150.299 191.233 150.307 191.222 150.313 191.21 150.316L189.658 150.723C189.629 150.731 189.598 150.722 189.578 150.7L189.231 150.346C189.197 150.315 189.195 150.262 189.226 150.229 189.236 150.219 189.248 150.211 189.261 150.207Z" fill="#464A5F" transform="matrix(1 0 0 1.00601 239.288 150.316)"/><path d="M191.286 149.793 192.865 149.409C192.894 149.401 192.924 149.41 192.944 149.432L193.275 149.763C193.307 149.799 193.303 149.854 193.267 149.885 193.258 149.893 193.247 149.899 193.236 149.902L191.677 150.296C191.647 150.302 191.616 150.293 191.594 150.273L191.246 149.939C191.211 149.91 191.206 149.858 191.235 149.822 191.248 149.807 191.266 149.796 191.286 149.793Z" fill="#464A5F" transform="matrix(1 0 0 1.00601 239.288 150.316)"/><path d="M193.206 149.333 194.834 148.936C194.853 148.925 194.876 148.925 194.894 148.936L195.255 149.32C195.278 149.346 195.276 149.385 195.25 149.409 195.243 149.415 195.234 149.42 195.225 149.422L193.63 149.843C193.611 149.851 193.589 149.851 193.57 149.843L193.186 149.452C193.155 149.437 193.142 149.4 193.157 149.368 193.166 149.349 193.185 149.336 193.206 149.333Z" fill="#464A5F" transform="matrix(1 0 0 1.00601 239.288 150.316)"/><path d="M195.146 148.916 196.774 148.522C196.792 148.512 196.815 148.512 196.834 148.522L197.198 148.903C197.222 148.925 197.224 148.963 197.201 148.987 197.193 148.997 197.181 149.003 197.168 149.005L195.559 149.409C195.538 149.415 195.515 149.409 195.5 149.393L195.116 149.005C195.098 148.975 195.109 148.937 195.139 148.92 195.141 148.918 195.143 148.917 195.146 148.916Z" fill="#464A5F" transform="matrix(1 0 0 1.00601 239.288 150.316)"/><path d="M197.082 148.473 198.585 148.142C198.608 148.134 198.633 148.142 198.647 148.161L198.939 148.519C198.96 148.546 198.955 148.586 198.928 148.607 198.921 148.612 198.914 148.616 198.906 148.618L197.492 148.992C197.471 148.995 197.449 148.989 197.433 148.976L197.049 148.585C197.019 148.57 197.007 148.535 197.022 148.505 197.033 148.483 197.057 148.47 197.082 148.473Z" fill="#464A5F" transform="matrix(1 0 0 1.00601 239.288 150.316)"/><path d="M198.925 148.049 200.431 147.718C200.454 147.713 200.478 147.72 200.494 147.738L200.786 148.095C200.807 148.123 200.802 148.162 200.775 148.183 200.768 148.189 200.761 148.192 200.753 148.195L199.339 148.569C199.318 148.575 199.294 148.569 199.28 148.552L198.896 148.165C198.866 148.146 198.858 148.107 198.876 148.078 198.887 148.061 198.905 148.05 198.925 148.049Z" fill="#464A5F" transform="matrix(1 0 0 1.00601 239.288 150.316)"/><path d="M173.26 155.983 173.817 156.774C173.839 156.807 173.88 156.823 173.919 156.814L176.815 156.152C176.867 156.139 176.898 156.087 176.886 156.036 176.883 156.022 176.877 156.01 176.868 155.999L176.256 155.192C176.233 155.159 176.192 155.145 176.153 155.155L173.32 155.85C173.268 155.868 173.24 155.924 173.258 155.976 173.259 155.978 173.26 155.981 173.26 155.983Z" fill="#464A5F" transform="matrix(1 0 0 1.00601 239.288 150.316)"/><path d="M174.138 157.045 174.694 157.929C174.715 157.964 174.756 157.981 174.796 157.972L178.295 157.138C178.347 157.127 178.379 157.075 178.368 157.024 178.365 157.008 178.358 156.994 178.348 156.982L177.656 156.125C177.631 156.097 177.593 156.084 177.557 156.092L174.197 156.89C174.145 156.898 174.109 156.947 174.117 156.999 174.12 157.016 174.127 157.032 174.138 157.045Z" fill="#464A5F" transform="matrix(1 0 0 1.00601 239.288 150.316)"/><path d="M174.929 158.214 175.591 159.17C175.614 159.202 175.655 159.217 175.693 159.207L180.327 158.061C180.379 158.05 180.412 157.999 180.401 157.948 180.398 157.934 180.392 157.92 180.383 157.909L179.635 156.949C179.612 156.92 179.573 156.907 179.536 156.916L174.955 158.061C174.907 158.088 174.89 158.148 174.917 158.196 174.92 158.203 174.924 158.208 174.929 158.214Z" fill="#464A5F" transform="matrix(1 0 0 1.00601 239.288 150.316)"/><path d="M185.537 157.168 186.384 158.187C186.41 158.217 186.451 158.23 186.49 158.22L196.685 155.678C196.74 155.665 196.774 155.61 196.761 155.555 196.757 155.535 196.746 155.517 196.731 155.503L195.692 154.47C195.666 154.444 195.628 154.433 195.592 154.44L185.59 156.999C185.534 157.015 185.501 157.074 185.517 157.13 185.521 157.144 185.528 157.157 185.537 157.168Z" fill="#464A5F" transform="matrix(1 0 0 1.00601 239.288 150.316)"/><path d="M196.062 154.53 197.055 155.523C197.077 155.543 197.109 155.551 197.138 155.542L199.227 154.983C199.271 154.971 199.297 154.926 199.285 154.882 199.281 154.867 199.274 154.854 199.263 154.844L198.227 153.831C198.207 153.809 198.176 153.8 198.148 153.808L196.096 154.377C196.05 154.383 196.018 154.425 196.024 154.47 196.027 154.495 196.041 154.517 196.062 154.53Z" fill="#464A5F" transform="matrix(1 0 0 1.00601 239.288 150.316)"/><path d="M201.11 153.911 201.563 154.391C201.582 154.401 201.605 154.401 201.623 154.391L203.172 153.977C203.206 153.967 203.225 153.933 203.216 153.899 203.213 153.889 203.207 153.879 203.199 153.871L202.646 153.355C202.631 153.338 202.608 153.331 202.586 153.338L201.136 153.792C201.104 153.784 201.071 153.805 201.064 153.838 201.056 153.871 201.077 153.903 201.11 153.911Z" fill="#464A5F" transform="matrix(1 0 0 1.00601 239.288 150.316)"/><path d="M202.427 152.868 202.97 153.437C202.989 153.45 203.014 153.45 203.033 153.437L204.453 152.948C204.486 152.937 204.504 152.901 204.493 152.868 204.49 152.858 204.484 152.849 204.476 152.842L203.947 152.365C203.931 152.35 203.908 152.344 203.887 152.348L202.454 152.752C202.419 152.756 202.394 152.787 202.398 152.822 202.4 152.841 202.411 152.858 202.427 152.868Z" fill="#464A5F" transform="matrix(1 0 0 1.00601 239.288 150.316)"/><path d="M203.473 153.851 203.083 153.537C203.055 153.515 203.051 153.476 203.072 153.448 203.08 153.439 203.091 153.431 203.103 153.427L204.516 152.938C204.536 152.926 204.562 152.926 204.582 152.938L205.022 153.368C205.047 153.39 205.049 153.427 205.027 153.452 205.019 153.461 205.008 153.468 204.996 153.47L203.526 153.851C203.509 153.859 203.49 153.859 203.473 153.851Z" fill="#464A5F" transform="matrix(1 0 0 1.00601 239.288 150.316)"/><path d="M204.923 152.977C205.045 153.096 205.254 153.328 205.343 153.408 205.362 153.419 205.385 153.419 205.403 153.408L206.876 153.007C206.908 153 206.928 152.968 206.921 152.936 206.918 152.924 206.912 152.913 206.902 152.905L206.379 152.431C206.361 152.422 206.339 152.422 206.32 152.431L204.95 152.871C204.916 152.881 204.897 152.916 204.906 152.949 204.909 152.96 204.915 152.97 204.923 152.977Z" fill="#464A5F" transform="matrix(1 0 0 1.00601 239.288 150.316)"/><path d="M200.789 152.047 201.58 152.809C201.597 152.819 201.619 152.819 201.636 152.809L205.439 151.816C205.473 151.806 205.492 151.772 205.483 151.738 205.48 151.726 205.473 151.715 205.463 151.706L204.539 150.945C204.521 150.936 204.5 150.936 204.483 150.945L200.815 151.938C200.782 151.946 200.761 151.98 200.768 152.013 200.771 152.027 200.779 152.038 200.789 152.047Z" fill="#464A5F" transform="matrix(1 0 0 1.00601 239.288 150.316)"/><path d="M200.531 150.872 201.345 151.597C201.363 151.607 201.384 151.607 201.401 151.597L204.261 150.935C204.295 150.927 204.316 150.893 204.308 150.86 204.305 150.846 204.298 150.835 204.288 150.826L203.351 150.045C203.333 150.035 203.312 150.035 203.295 150.045L200.557 150.78C200.526 150.794 200.511 150.831 200.525 150.863 200.527 150.866 200.529 150.869 200.531 150.872Z" fill="#464A5F" transform="matrix(1 0 0 1.00601 239.288 150.316)"/><path d="M200.792 149.624 201.563 150.313C201.579 150.326 201.599 150.332 201.62 150.329L203.086 149.998C203.12 149.99 203.141 149.957 203.133 149.923 203.13 149.911 203.124 149.901 203.116 149.892L202.202 149.105C202.184 149.093 202.161 149.093 202.143 149.105L200.819 149.532C200.788 149.543 200.772 149.577 200.783 149.608 200.785 149.614 200.788 149.619 200.792 149.624Z" fill="#464A5F" transform="matrix(1 0 0 1.00601 239.288 150.316)"/><path d="M198.783 148.946 199.531 149.608C199.549 149.618 199.57 149.618 199.587 149.608L201.904 149.058C201.938 149.051 201.959 149.017 201.951 148.983 201.948 148.97 201.941 148.958 201.931 148.949L201.04 148.204C201.023 148.194 201.002 148.194 200.984 148.204L198.8 148.82C198.765 148.816 198.733 148.84 198.729 148.875 198.724 148.909 198.748 148.941 198.783 148.946Z" fill="#464A5F" transform="matrix(1 0 0 1.00601 239.288 150.316)"/><path d="M178.603 112.927C177.176 114.624 175.836 116.392 174.588 118.223 174.105 118.989 173.562 119.714 172.963 120.391 172.105 121.295 171.033 121.973 170.156 122.86 169.14 123.89 168.418 125.177 167.71 126.432 167.221 127.271 166.779 128.136 166.386 129.024 165.274 131.683 165.071 134.634 165.807 137.421 166.075 138.414 166.611 139.532 167.624 139.767 168.418 139.953 169.212 139.529 169.908 139.105 170.656 138.652 171.423 138.156 171.864 137.398 172.19 136.746 172.383 136.036 172.433 135.309L173.303 128.937C173.364 128.257 173.519 127.589 173.764 126.952 174.263 125.813 175.303 125.002 176.392 124.403 177.481 123.804 178.656 123.357 179.702 122.675 180.675 122.04 181.512 121.212 182.485 120.577 183.68 119.792 185.067 119.306 186.156 118.382 187.245 117.459 187.983 115.857 187.314 114.596 187.003 114.1 186.597 113.672 186.119 113.335L183.991 111.62C183.538 111.256 182.601 110.154 182.028 110.081 181.456 110.008 180.589 110.875 180.205 111.216 179.63 111.747 179.094 112.319 178.603 112.927Z" fill="#FBBEBE" transform="matrix(1 0 0 1.00601 239.288 150.316)"/><path d="M171.337 103.243C171.788 103.31 172.232 103.421 172.661 103.574 173.095 103.749 173.492 104.014 173.929 104.179 174.495 104.35 175.071 104.487 175.654 104.59 176.241 104.699 176.764 105.031 177.113 105.517 176.148 105.751 175.291 106.305 174.68 107.089 174.241 107.702 173.898 108.38 173.664 109.098 172.891 111.234 172.445 113.475 172.34 115.744 172.32 116.141 172.34 116.598 172.638 116.86 171.165 115.665 169.083 115.701 167.19 115.787 167.012 115.808 166.832 115.793 166.66 115.744 166.474 115.659 166.314 115.526 166.194 115.36 165.67 114.721 165.328 113.953 165.201 113.136 165.022 111.968 165.294 110.783 165.532 109.624 165.782 108.507 165.926 107.369 165.962 106.225 165.979 105.06 165.611 104.12 165.419 103.011 165.184 101.67 166.68 102.329 167.481 102.485Z" fill="#6C63FF" transform="matrix(1 0 0 1.00601 239.288 150.316)"/></g></g></g></g></svg>