<svg width="136" height="123" xmlns="http://www.w3.org/2000/svg" xmlns:xlink="http://www.w3.org/1999/xlink" overflow="hidden"><defs><clipPath id="clip0"><rect x="137" y="375" width="136" height="123"/></clipPath><clipPath id="clip1"><rect x="137" y="376" width="135" height="121"/></clipPath><clipPath id="clip2"><rect x="137" y="376" width="135" height="121"/></clipPath></defs><g clip-path="url(#clip0)" transform="translate(-137 -375)"><g clip-path="url(#clip1)"><g clip-path="url(#clip2)"><path d="M50.1294 83.0198 238.889 83.0198 238.889 92.5999 50.1294 92.5999Z" fill="#F2F2F2" transform="matrix(0.863644 -0.509093 0.511762 0.85914 14.2759 419.094)"/><path d="M85.4246 91.0872 274.184 91.0872 274.184 100.667 85.4246 100.667Z" fill="#F2F2F2" transform="matrix(0.863644 -0.509093 0.511762 0.85914 15.097 438.188)"/><path d="M116.686 99.911 305.446 99.911 305.446 109.491 116.686 109.491Z" fill="#F2F2F2" transform="matrix(0.863644 -0.509093 0.511762 0.85914 14.9654 455.334)"/><path d="M156.404 61.8741C156.404 89.9157 133.672 112.648 105.63 112.648 77.5889 112.648 54.8567 89.9157 54.8567 61.8741 54.8567 33.8325 77.5889 11.1002 105.63 11.1002 133.672 11.1002 156.404 33.8325 156.404 61.8741Z" fill="#FFFFFF" transform="matrix(1.00524 0 0 1 100.056 368.803)"/><path d="M115.269 97.4017C115.269 69.1968 138.215 46.2503 166.42 46.2503 194.625 46.2503 217.572 69.1968 217.572 97.4017 217.572 125.607 194.625 148.553 166.42 148.553 138.215 148.553 115.269 125.607 115.269 97.4017ZM116.024 97.4017C116.024 125.19 138.632 147.798 166.42 147.798 194.209 147.798 216.816 125.19 216.816 97.4017 216.816 69.6133 194.209 47.0056 166.42 47.0056 138.632 47.0056 116.024 69.6133 116.024 97.4017Z" fill="#3F3D56" transform="matrix(1.00524 0 0 1 38.9478 333.275)"/><path d="M157.369 97.6225 157.369 97.6225C157.369 92.6238 161.421 88.5715 166.42 88.5715 171.419 88.5715 175.471 92.6237 175.471 97.6224 175.471 102.621 171.419 106.673 166.42 106.673 161.421 106.673 157.369 102.621 157.369 97.6225ZM166.42 89.013C161.667 89.0183 157.816 92.8698 157.811 97.6225L157.811 97.6225C157.811 102.377 161.665 106.232 166.42 106.232 171.175 106.232 175.03 102.377 175.03 97.6225 175.03 92.8676 171.175 89.013 166.42 89.013Z" fill="#3F3D56" transform="matrix(1.00524 0 0 1 38.9478 333.275)"/><path d="M149.201 97.6225 149.201 97.6225C149.201 88.1127 156.91 80.4035 166.42 80.4035 175.93 80.4035 183.639 88.1127 183.639 97.6225 183.639 107.132 175.93 114.841 166.42 114.841 156.91 114.841 149.201 107.132 149.201 97.6225ZM166.42 80.845C157.154 80.845 149.643 88.3566 149.643 97.6225 149.643 106.888 157.154 114.4 166.42 114.4 175.686 114.4 183.198 106.888 183.198 97.6225 183.187 88.3609 175.682 80.8555 166.42 80.845Z" fill="#CCCCCC" transform="matrix(1.00524 0 0 1 38.9478 333.275)"/><path d="M132.865 97.6225C132.865 79.0906 147.888 64.0676 166.42 64.0676 184.952 64.0676 199.975 79.0906 199.975 97.6225 199.975 116.154 184.952 131.177 166.42 131.177 147.897 131.156 132.886 116.146 132.865 97.6225ZM166.42 64.5091C148.132 64.5091 133.307 79.3345 133.307 97.6225 133.307 115.91 148.132 130.736 166.42 130.736 184.708 130.736 199.534 115.91 199.534 97.6225 199.513 79.343 184.7 64.5298 166.42 64.5091Z" fill="#CCCCCC" transform="matrix(1.00524 0 0 1 38.9478 333.275)"/><path d="M109.825 61.8741C109.825 64.1906 107.947 66.0684 105.63 66.0684 103.314 66.0684 101.436 64.1906 101.436 61.8741 101.436 59.5576 103.314 57.6797 105.63 57.6797 107.947 57.6797 109.825 59.5576 109.825 61.8741Z" fill="#6C63FF" transform="matrix(1.00524 0 0 1 100.056 368.803)"/><path d="M99.0078 74.0156C99.0078 76.3321 97.1299 78.21 94.8134 78.21 92.497 78.21 90.6191 76.3321 90.6191 74.0156 90.6191 71.6992 92.497 69.8213 94.8134 69.8213 97.1299 69.8213 99.0078 71.6992 99.0078 74.0156Z" fill="#6C63FF" transform="matrix(1.00524 0 0 1 100.056 368.803)"/><path d="M141.209 72.2496C141.209 74.5661 139.331 76.4439 137.014 76.4439 134.698 76.4439 132.82 74.5661 132.82 72.2496 132.82 69.9331 134.698 68.0552 137.014 68.0552 139.331 68.0552 141.209 69.9331 141.209 72.2496Z" fill="#6C63FF" transform="matrix(1.00524 0 0 1 100.056 368.803)"/><path d="M107.617 61.8741C107.617 62.9713 106.728 63.8609 105.63 63.8609 104.533 63.8609 103.644 62.9713 103.644 61.8741 103.644 60.7768 104.533 59.8873 105.63 59.8873 106.728 59.8873 107.617 60.7768 107.617 61.8741Z" fill="#2F2E41" transform="matrix(1.00524 0 0 1 100.056 368.803)"/><path d="M139.001 72.2496C139.001 73.3469 138.111 74.2364 137.014 74.2364 135.917 74.2364 135.027 73.3469 135.027 72.2496 135.027 71.1523 135.917 70.2628 137.014 70.2628 138.111 70.2628 139.001 71.1523 139.001 72.2496Z" fill="#2F2E41" transform="matrix(1.00524 0 0 1 100.056 368.803)"/><path d="M96.8002 74.2364C96.8002 75.3337 95.9107 76.2232 94.8134 76.2232 93.7162 76.2232 92.8267 75.3337 92.8267 74.2364 92.8267 73.1391 93.7162 72.2496 94.8134 72.2496 95.9107 72.2496 96.8002 73.1391 96.8002 74.2364Z" fill="#2F2E41" transform="matrix(1.00524 0 0 1 100.056 368.803)"/><path d="M14.8999 39.5777C14.8999 40.675 14.0103 41.5645 12.9131 41.5645 11.8158 41.5645 10.9263 40.675 10.9263 39.5777 10.9263 38.4805 11.8158 37.5909 12.9131 37.5909 14.0103 37.5909 14.8999 38.4805 14.8999 39.5777Z" fill="#6C63FF" transform="matrix(1.00524 0 0 1 100.056 368.803)"/><path d="M105.52 39.6883 18.3214 39.6883 18.3214 39.2467 105.962 39.2467 105.962 61.9843 105.52 61.9843 105.52 39.6883Z" fill="#2F2E41" transform="matrix(1.00524 0 0 1 100.056 368.803)"/><path d="M67.9631 75.1054C67.9631 71.9355 70.5328 69.3657 73.7027 69.3657 76.8726 69.3657 79.4424 71.9354 79.4424 75.1054 79.4424 78.2753 76.8726 80.845 73.7027 80.845 70.5328 80.845 67.9631 78.2753 67.9631 75.1054ZM73.7027 69.8073C70.7766 69.8073 68.4046 72.1793 68.4046 75.1054 68.4046 78.0315 70.7766 80.4035 73.7027 80.4035 76.6288 80.4035 79.0008 78.0315 79.0008 75.1054 78.9975 72.1807 76.6274 69.8106 73.7027 69.8073Z" fill="#2F2E41" transform="matrix(1.00524 0 0 1 38.9478 333.275)"/><path d="M28.1452 96.7535C28.1452 97.8508 27.2557 98.7403 26.1584 98.7403 25.0611 98.7403 24.1716 97.8507 24.1716 96.7535 24.1716 95.6562 25.0611 94.7667 26.1584 94.7667 27.2557 94.7667 28.1452 95.6562 28.1452 96.7535Z" fill="#6C63FF" transform="matrix(1.00524 0 0 1 100.056 368.803)"/><path d="M81.2084 132.281 81.2084 132.281C81.2084 129.111 83.7782 126.541 86.9481 126.541 90.118 126.541 92.6877 129.111 92.6877 132.281 92.6877 135.451 90.118 138.021 86.9481 138.021 83.7782 138.021 81.2084 135.451 81.2084 132.281ZM86.9481 126.983C84.022 126.983 81.6499 129.355 81.6499 132.281 81.6499 135.207 84.022 137.579 86.9481 137.579 89.8741 137.579 92.2462 135.207 92.2462 132.281 92.2429 129.356 89.8728 126.986 86.9481 126.983Z" fill="#2F2E41" transform="matrix(1.00524 0 0 1 38.9478 333.275)"/><path d="M200.592 48.8495C200.592 49.9468 199.702 50.8363 198.605 50.8363 197.508 50.8363 196.618 49.9468 196.618 48.8495 196.618 47.7522 197.508 46.8627 198.605 46.8627 199.702 46.8627 200.592 47.7522 200.592 48.8495Z" fill="#6C63FF" transform="matrix(1.00524 0 0 1 100.056 368.803)"/><path d="M253.655 84.3771C253.655 81.2072 256.225 78.6375 259.395 78.6375 262.565 78.6375 265.134 81.2072 265.134 84.3771 265.134 87.5471 262.565 90.1168 259.395 90.1168 256.225 90.1168 253.655 87.5471 253.655 84.3772ZM259.395 79.079C256.47 79.0824 254.1 81.4524 254.097 84.3771L254.097 84.3771C254.097 87.3032 256.469 89.6753 259.395 89.6753 262.321 89.6753 264.693 87.3032 264.693 84.3771 264.693 81.451 262.321 79.079 259.395 79.079Z" fill="#2F2E41" transform="matrix(1.00524 0 0 1 38.9478 333.275)"/><path d="M136.793 49.5151 193.083 48.6288 193.09 49.07 137.235 49.9498 137.235 72.2497 136.793 72.2497 136.793 49.5151Z" fill="#2F2E41" transform="matrix(1.00524 0 0 1 100.056 368.803)"/><path d="M31.6774 96.5328 94.5926 96.5328 94.5926 74.2365 95.0341 74.2365 95.0341 96.974 31.6774 96.974 31.6774 96.5328Z" fill="#2F2E41" transform="matrix(1.00524 0 0 1 100.056 368.803)"/><path d="M0.771489 49.9533 25.0546 49.9533 25.0546 51.4985 0.77149 51.4985Z" fill="#CCCCCC" transform="matrix(1.00524 0 0 1 100.056 368.803)"/><path d="M0.771489 54.3684 25.0546 54.3684 25.0546 55.9137 0.77149 55.9137Z" fill="#CCCCCC" transform="matrix(1.00524 0 0 1 100.056 368.803)"/><path d="M0.771489 58.7835 25.0546 58.7835 25.0546 60.3288 0.77149 60.3288Z" fill="#CCCCCC" transform="matrix(1.00524 0 0 1 100.056 368.803)"/><path d="M14.0168 107.129 38.3 107.129 38.3 108.674 14.0168 108.674Z" fill="#CCCCCC" transform="matrix(1.00524 0 0 1 100.056 368.803)"/><path d="M14.0168 111.544 38.3 111.544 38.3 113.089 14.0168 113.089Z" fill="#CCCCCC" transform="matrix(1.00524 0 0 1 100.056 368.803)"/><path d="M14.0168 115.959 38.3 115.959 38.3 117.505 14.0168 117.505Z" fill="#CCCCCC" transform="matrix(1.00524 0 0 1 100.056 368.803)"/><path d="M186.463 59.4458 210.747 59.4458 210.747 60.991 186.463 60.991Z" fill="#CCCCCC" transform="matrix(1.00524 0 0 1 100.056 368.803)"/><path d="M186.463 63.8609 210.747 63.8609 210.747 65.4062 186.463 65.4062Z" fill="#CCCCCC" transform="matrix(1.00524 0 0 1 100.056 368.803)"/><path d="M186.463 68.276 210.747 68.276 210.747 69.8213 186.463 69.8213Z" fill="#CCCCCC" transform="matrix(1.00524 0 0 1 100.056 368.803)"/><path d="M222.307 191.105 218.853 192.34 212.45 179.607 217.546 177.785 222.307 191.105Z" fill="#FFB8B8" transform="matrix(1.00524 0 0 1 100.056 368.803)"/><path d="M274.038 233.645 273.988 233.505C273.136 231.111 274.382 228.479 276.773 227.621L283.574 225.191 285.174 229.666Z" fill="#2F2E41" transform="matrix(1.00524 0 0 1 38.9478 333.275)"/><path d="M199.85 194.521 196.183 194.521 194.438 180.375 199.851 180.376 199.85 194.521Z" fill="#FFB8B8" transform="matrix(1.00524 0 0 1 100.056 368.803)"/><path d="M261.575 233.604 249.75 233.603 249.75 233.454C249.75 230.912 251.811 228.851 254.353 228.851L254.353 228.851 261.575 228.851Z" fill="#2F2E41" transform="matrix(1.00524 0 0 1 38.9478 333.275)"/><path d="M268.998 139.677 267.403 136.526C267.403 136.526 261.461 138.014 260.921 141.458Z" fill="#6C63FF" transform="matrix(1.00524 0 0 1 38.9478 333.275)"/><path d="M214.789 140.185 210.452 164.389 221.968 184.756 215.088 187.448 203.422 167.705 201.926 162.321 201.029 190.439 194.824 190.251 191.979 163.995 196.542 139.587 214.789 140.185Z" fill="#2F2E41" transform="matrix(1.00524 0 0 1 100.056 368.803)"/><path d="M254.863 180.079C254.728 179.48 254.342 161.182 254.342 161.182 254.342 161.182 260.721 140.24 260.779 140.068L260.802 140 265.645 138.185C265.713 138.154 267.327 137.435 268.647 138.034 269.333 138.367 269.836 138.986 270.024 139.725 270.573 140.134 274.532 144.569 274.532 150.584L274.681 164.777 278 180.165 277.853 180.196C277.763 180.216 273.717 181.434 267.345 181.434 263.805 181.434 254.863 180.079 254.863 180.079Z" fill="#3F3D56" transform="matrix(1.00524 0 0 1 38.9478 333.275)"/><path d="M208.205 93.46C208.205 97.0752 205.275 100.006 201.659 100.006 198.044 100.006 195.113 97.0752 195.113 93.46 195.113 89.8448 198.044 86.9141 201.659 86.9141 205.275 86.9141 208.205 89.8448 208.205 93.46Z" fill="#FFB8B8" transform="matrix(1.00524 0 0 1 100.056 368.803)"/><path d="M210.985 122.298 199.533 138.277 197.842 130.815 210.985 122.298Z" fill="#000000" fill-opacity="0.2" transform="matrix(1.00524 0 0 1 100.056 368.803)"/><path d="M251.449 174.149C253 174.088 254.206 172.781 254.145 171.231 254.138 171.066 254.117 170.901 254.082 170.74L262.591 165.52 257.892 163.322 250.532 168.615C249.034 169.05 248.172 170.617 248.607 172.115 248.97 173.368 250.146 174.209 251.449 174.149Z" fill="#FFB8B8" transform="matrix(1.00524 0 0 1 38.9478 333.275)"/><path d="M196.542 127.92 193.627 129.963 196.099 134.352 199.533 131.51 196.542 127.92Z" fill="#6C63FF" transform="matrix(1.00524 0 0 1 100.056 368.803)"/><path d="M255.806 163.577 262.661 155.631 260.035 144.671C259.417 142.095 261.005 139.507 263.58 138.89 265.696 138.382 267.889 139.364 268.92 141.28L268.98 141.391 271.4 157.666 259.239 170.131Z" fill="#3F3D56" transform="matrix(1.00524 0 0 1 38.9478 333.275)"/><path d="M268.025 134.671 262.592 134.866C262.26 134.878 261.362 131.304 261.244 130.562 261.052 129.564 260.148 128.863 259.133 128.925 258.726 128.964 257.701 128.204 256.642 127.304 254.633 125.596 254.738 122.388 256.945 120.945 257.005 120.905 257.064 120.869 257.122 120.836 258.515 120.057 260.144 119.795 261.739 119.776 263.185 119.757 264.673 119.939 265.947 120.624 268.231 121.851 269.447 124.533 269.554 127.124 269.661 129.715 268.83 132.249 267.887 134.665" fill="#2F2E41" transform="matrix(1.00524 0 0 1 38.9478 333.275)"/><path d="M297.873 233.693 231.764 233.693C231.599 233.693 231.465 233.559 231.465 233.394 231.465 233.229 231.599 233.095 231.764 233.095L297.873 233.095C298.038 233.095 298.172 233.229 298.172 233.394 298.172 233.559 298.038 233.693 297.873 233.693Z" fill="#3F3D56" transform="matrix(1.00524 0 0 1 38.9478 333.275)"/></g></g></g></svg>