<svg width="148" height="105" xmlns="http://www.w3.org/2000/svg" xmlns:xlink="http://www.w3.org/1999/xlink" overflow="hidden"><defs><clipPath id="clip0"><rect x="363" y="359" width="148" height="105"/></clipPath><clipPath id="clip1"><rect x="364" y="360" width="146" height="103"/></clipPath><clipPath id="clip2"><rect x="363" y="360" width="147" height="103"/></clipPath><clipPath id="clip3"><rect x="66" y="360" width="444" height="257"/></clipPath></defs><g clip-path="url(#clip0)" transform="translate(-363 -359)"><g clip-path="url(#clip1)"><g clip-path="url(#clip2)"><g clip-path="url(#clip3)"><path d="M104.44 285.807C103.492 285.851 102.689 285.118 102.645 284.17 102.622 283.665 102.823 283.174 103.195 282.83 103.239 282.658 103.27 282.535 103.313 282.363 103.297 282.325 103.282 282.288 103.266 282.25 102.273 279.905 99.5663 278.808 97.2206 279.801 96.1061 280.273 95.2217 281.164 94.7582 282.282 93.3667 285.633 91.5951 288.99 91.1588 292.534 90.9667 294.1 91.0478 295.688 91.3984 297.227 88.1301 290.097 86.433 282.349 86.422 274.506 86.4214 272.538 86.5307 270.571 86.7496 268.615 86.9304 267.012 87.1814 265.42 87.5024 263.839 89.2541 255.264 93.0151 247.225 98.4766 240.385 101.12 238.943 103.258 236.725 104.602 234.031 105.089 233.062 105.433 232.028 105.623 230.961 105.325 231 105.022 231.024 104.724 231.044 104.631 231.049 104.533 231.054 104.44 231.058L104.405 231.06C103.466 231.102 102.671 230.375 102.629 229.436 102.61 229.02 102.745 228.611 103.008 228.288 103.137 228.129 103.265 227.971 103.394 227.813 103.59 227.568 103.79 227.329 103.986 227.084 104.008 227.061 104.03 227.037 104.049 227.011 104.274 226.732 104.499 226.458 104.724 226.18 104.313 225.543 103.761 225.009 103.111 224.621 100.857 223.301 97.7482 224.215 96.1204 226.253 94.4877 228.292 94.1798 231.151 94.7468 233.698 95.3044 235.865 96.2268 237.922 97.4745 239.779 97.3523 239.936 97.2252 240.087 97.103 240.244 94.869 243.116 92.9219 246.201 91.2897 249.453 91.6866 245.81 91.2128 242.124 89.9074 238.699 88.5843 235.507 86.1043 232.819 83.9204 230.06 81.2972 226.745 75.9181 228.192 75.4559 232.393 75.4515 232.434 75.4471 232.474 75.4428 232.515 75.7672 232.698 76.0848 232.892 76.3954 233.098 77.4653 233.813 77.7531 235.259 77.0383 236.329 76.6755 236.872 76.1015 237.238 75.4562 237.337L75.4086 237.345C75.5242 238.514 75.7285 239.673 76.0197 240.811 77.7255 247.234 82.0322 252.655 87.9031 255.769 88.0938 255.867 88.2796 255.964 88.4702 256.057 86.8303 260.705 85.8017 265.546 85.4101 270.458 85.1885 273.357 85.2016 276.268 85.4492 279.164L85.4346 279.062C84.8088 275.841 83.0908 272.935 80.5707 270.835 76.8277 267.76 71.5395 266.628 67.5014 264.156 66.2587 263.358 64.6045 263.719 63.8067 264.962 63.4649 265.494 63.3229 266.13 63.406 266.757 63.4114 266.793 63.4169 266.829 63.4225 266.865 64.0245 267.11 64.6105 267.393 65.1774 267.711 65.5018 267.894 65.8193 268.088 66.13 268.294 67.1998 269.008 67.4876 270.455 66.7728 271.525 66.4101 272.068 65.8361 272.434 65.1907 272.533L65.1432 272.541C65.1089 272.546 65.0796 272.55 65.0454 272.555 66.074 275.011 67.5175 277.272 69.3129 279.238 73.7955 284.048 80.0624 286.797 86.6371 286.839L86.642 286.839C87.5251 290.676 88.8045 294.411 90.4598 297.984L104.098 297.984C104.147 297.833 104.191 297.676 104.235 297.525 102.973 297.604 101.705 297.529 100.461 297.3 101.473 296.058 102.485 294.807 103.497 293.565 103.519 293.542 103.541 293.518 103.56 293.492 104.074 292.856 104.592 292.226 105.105 291.59L105.105 291.59C105.133 289.642 104.909 287.698 104.44 285.808Z" fill="#F2F2F2" transform="matrix(1 0 0 1.00384 2.96411 273.681)"/><path d="M272.409 298.169C272.41 298.48 272.158 298.733 271.846 298.734 271.845 298.734 271.844 298.734 271.843 298.734L63.9807 298.734C63.6683 298.734 63.415 298.481 63.415 298.169 63.415 297.856 63.6683 297.603 63.9807 297.603L271.843 297.603C272.155 297.602 272.408 297.854 272.409 298.165 272.409 298.166 272.409 298.167 272.409 298.169Z" fill="#CCCCCC" transform="matrix(1 0 0 1.00384 2.96411 273.681)"/><path d="M161.469 223.555C163.297 224.166 164.283 226.143 163.672 227.97 163.607 228.165 163.525 228.354 163.427 228.534L168.43 234.742 165.399 238.703 158.456 229.837C156.82 228.799 156.335 226.632 157.373 224.995 158.242 223.627 159.935 223.031 161.469 223.555Z" fill="#A0616A" transform="matrix(1 0 0 1.00384 2.96411 273.681)"/><path d="M163.707 240.464 160.881 233.434 166.108 229.721 168.552 234.101 172.12 236.534 176.86 240.744C178.145 239.688 188.003 231.788 191.157 235.147 191.932 235.91 192.335 236.975 192.26 238.06 192.063 240.617 189.352 242.763 189.249 242.842L183.264 248.462C183.041 248.843 180.689 252.757 178 253.439 177.225 253.651 176.397 253.529 175.716 253.102 169.598 249.345 165.686 245.648 164.249 242.293 163.994 241.708 163.811 241.094 163.707 240.464Z" fill="#2F2E41" transform="matrix(1 0 0 1.00384 2.96411 273.681)"/><path d="M97.3696 246.438 92.7664 246.653 89.746 229.001 96.5401 228.683 97.3696 246.438Z" fill="#A0616A" transform="matrix(1 0 0 1.00384 66.3389 360.046)"/><path d="M163.212 341.117 159.946 341.269 159.219 338.213 157.87 341.366 149.207 341.772C148.131 341.822 147.218 340.991 147.168 339.915 147.138 339.275 147.424 338.662 147.934 338.273L154.629 333.172 154.483 330.054 161.78 330.148Z" fill="#2F2E41" transform="matrix(1 0 0 1.00384 2.96411 273.681)"/><path d="M49.3096 208.536 47.6326 204.244 63.3907 195.733 71.3508 200.737 49.3096 208.536Z" fill="#A0616A" transform="matrix(1 0 0 1.00384 66.3389 360.046)"/><path d="M105.285 299.675 104.095 296.629 106.758 294.962 103.338 294.693 100.182 286.615C99.7903 285.613 100.286 284.482 101.288 284.09 101.885 283.857 102.558 283.932 103.089 284.29L110.065 289 112.972 287.864 115.218 294.808Z" fill="#2F2E41" transform="matrix(1 0 0 1.00384 2.96411 273.681)"/><path d="M203.21 281.796C203.21 281.796 201.298 294 192.261 294.904 183.224 295.808 174.894 291.737 174.894 291.737L149.59 283.944C149.59 283.944 122.676 291.591 118.158 292.796 118.158 292.796 115.041 285.721 115.145 285.265 116.107 281.06 117.358 283.904 117.358 283.904L145.976 271.253C145.976 271.253 150.494 270.048 158.326 273.361 166.158 276.675 187.14 284.662 187.14 284.662Z" fill="#2F2E41" transform="matrix(1 0 0 1.00384 2.96411 273.681)"/><path d="M203.105 281.048C203.105 281.048 204.613 295.668 195.809 297.902 187.441 300.025 175.899 297.847 175.899 297.847L162.138 296.41C162.138 296.41 161.535 314.091 161.535 322.827 158.739 323.207 155.922 323.408 153.101 323.43 152.498 323.43 152.458 323.114 152.458 323.114L151.292 292.556C150.968 287.299 154.966 282.775 160.223 282.451 160.534 282.431 160.847 282.427 161.158 282.439 161.808 282.464 162.49 282.51 163.203 282.577 171.668 283.389 182.178 281.663 182.178 281.663Z" fill="#2F2E41" transform="matrix(1 0 0 1.00384 2.96411 273.681)"/><path d="M178.688 259.837C178.688 259.837 175.114 281.449 177.529 283.174 179.945 284.899 183.257 284.906 183.257 284.906L184.027 272.973Z" fill="#2F2E41" transform="matrix(1 0 0 1.00384 2.96411 273.681)"/><path d="M184.649 233.295 179.87 237.836C175.307 242.172 174.175 249.01 177.099 254.585L179.383 258.941Z" fill="#2F2E41" transform="matrix(1 0 0 1.00384 2.96411 273.681)"/><path d="M185.717 234.059 179.243 241.433C177.822 243.052 176.941 245.074 176.724 247.216L176.724 247.216C176.625 248.189 176.664 249.171 176.841 250.133L179.281 263.398 181.115 282.554C181.115 282.554 195.274 286.844 196.724 280.219 198.173 273.595 185.717 234.059 185.717 234.059Z" fill="#6C63FF" transform="matrix(1 0 0 1.00384 2.96411 273.681)"/><path d="M182.026 276.286 179.955 271.524 178.199 259.111C178.103 258.389 180.069 246.571 182.915 233.892L186.375 229.049 188.37 227.22 194.054 230.946C196.104 232.03 200.588 246.187 197.828 256.205 196.879 259.651 198.538 263.942 198.794 267.108L202.734 276.788 203.666 282.386 203.524 282.441C203.382 282.495 201.102 282.803 191.795 284.354 184.083 285.639 188.306 279.316 182.026 276.286Z" fill="#2F2E41" transform="matrix(1 0 0 1.00384 2.96411 273.681)"/><path d="M163.807 271.084C164.875 269.48 167.041 269.047 168.645 270.116 168.816 270.229 168.977 270.358 169.125 270.5L176.427 267.299 179.455 271.262 169.079 275.638C167.649 276.945 165.43 276.845 164.123 275.415 163.03 274.218 162.899 272.427 163.807 271.084Z" fill="#A0616A" transform="matrix(1 0 0 1.00384 2.96411 273.681)"/><path d="M180.711 273.357 173.185 274.242 170.973 268.224 175.84 267.013 179.124 264.208 184.428 260.737C183.747 259.221 178.707 247.636 182.775 245.473 183.715 244.925 184.848 244.815 185.876 245.172 188.291 246.032 189.652 249.211 189.701 249.331L193.556 256.58C193.865 256.895 197.026 260.191 196.978 262.964 196.98 263.768 196.645 264.535 196.055 265.08 190.826 270 186.233 272.806 182.618 273.313 181.987 273.406 181.346 273.421 180.711 273.357Z" fill="#2F2E41" transform="matrix(1 0 0 1.00384 2.96411 273.681)"/><path d="M193.578 217.416C193.578 222.537 189.517 226.689 184.507 226.689 179.497 226.689 175.436 222.537 175.436 217.416 175.436 212.294 179.497 208.143 184.507 208.143 189.517 208.143 193.578 212.294 193.578 217.416Z" fill="#A0616A" transform="matrix(0.992845 -0.119414 0.118957 0.996658 -21.5888 297.263)"/><path d="M208.118 210.523C206.373 208.922 205.361 206.64 203.895 204.76 202.428 202.879 200.081 201.32 197.888 202.061 196.376 202.572 195.341 204.085 194.917 205.683 194.493 207.281 194.581 208.978 194.672 210.639 194.304 207.247 191.679 204.23 188.475 203.518 185.145 202.864 181.773 204.435 180.131 207.405 178.192 205.996 175.507 206.261 173.881 208.021 172.336 209.924 172.309 212.641 173.814 214.575 175.372 216.4 178.045 216.78 180.049 215.462L180.842 216.033C180.634 217.528 181.526 218.957 182.96 219.426 184.074 219.728 185.565 219.477 186.096 220.544 186.467 221.289 186.048 222.183 185.567 222.848 185.087 223.513 184.505 224.209 184.538 225.045 184.587 226.307 185.984 227.028 187.189 227.151 190.204 227.387 193.061 225.772 194.413 223.067 194.439 223.015 194.467 222.962 194.498 222.91 196.065 220.322 196.498 217.204 195.695 214.287 195.535 213.721 195.576 213.28 195.957 213.096 197.607 212.299 202.577 212.961 204.17 213.908 205.764 214.854 207.11 216.198 208.658 217.223 210.207 218.248 212.108 218.954 213.853 218.415 215.263 217.894 216.401 216.825 217.011 215.451 217.627 214.064 218.035 212.593 218.222 211.086 215.136 213.283 210.941 213.049 208.118 210.523Z" fill="#2F2E41" transform="matrix(1 0 0 1.00384 2.96411 273.681)"/><path d="M209.489 270.872 209.485 270.866 209.489 270.878Z" fill="#2F2E41" transform="matrix(1 0 0 1.00384 2.96411 273.681)"/><path d="M150.487 227.566C139.588 229.238 129.398 221.758 127.727 210.859 126.055 199.96 133.536 189.77 144.434 188.099 155.333 186.428 165.523 193.908 167.194 204.807 168.865 215.705 161.385 225.895 150.487 227.566ZM144.578 189.039C134.199 190.631 127.075 200.335 128.666 210.715 130.258 221.095 139.963 228.219 150.343 226.627 160.722 225.035 167.846 215.33 166.254 204.951 164.663 194.571 154.958 187.447 144.578 189.039Z" fill="#3F3D56" transform="matrix(1 0 0 1.00384 2.96411 273.681)"/><path d="M220.634 151.888C209.735 153.559 199.545 146.079 197.874 135.18 196.203 124.282 203.683 114.092 214.581 112.42 225.48 110.749 235.67 118.229 237.341 129.128 239.013 140.026 231.532 150.216 220.634 151.888ZM214.725 113.36C204.346 114.952 197.222 124.657 198.814 135.036 200.405 145.416 210.11 152.54 220.49 150.948 230.869 149.356 237.993 139.651 236.402 129.272 234.81 118.892 225.105 111.768 214.725 113.36Z" fill="#3F3D56" transform="matrix(1 0 0 1.00384 2.96411 273.681)"/><path d="M301.535 197.117C290.636 198.789 280.446 191.308 278.775 180.41 277.104 169.511 284.584 159.321 295.482 157.65 306.381 155.978 316.571 163.459 318.242 174.357 319.914 185.256 312.434 195.446 301.535 197.117ZM295.627 158.59C285.247 160.181 278.123 169.886 279.715 180.266 281.307 190.645 291.011 197.769 301.391 196.177 311.771 194.586 318.894 184.881 317.303 174.501 315.711 164.122 306.006 156.998 295.627 158.59Z" fill="#3F3D56" transform="matrix(1 0 0 1.00384 2.96411 273.681)"/><path d="M397.441 125.735C386.543 127.407 376.353 119.926 374.681 109.028 373.01 98.1291 380.49 87.9392 391.389 86.2678 402.287 84.5964 412.477 92.0766 414.149 102.975 415.82 113.874 408.34 124.064 397.441 125.735ZM391.533 87.2075C381.153 88.7993 374.029 98.504 375.621 108.884 377.213 119.263 386.918 126.387 397.297 124.795 407.677 123.204 414.801 113.499 413.209 103.119 411.617 92.7397 401.913 85.6157 391.533 87.2075Z" fill="#3F3D56" transform="matrix(1 0 0 1.00384 2.96411 273.681)"/><path d="M488.352 160.364C477.453 162.036 467.263 154.556 465.592 143.657 463.921 132.758 471.401 122.568 482.299 120.897 493.198 119.226 503.388 126.706 505.059 137.604 506.731 148.503 499.251 158.693 488.352 160.364ZM482.444 121.837C472.064 123.428 464.94 133.133 466.532 143.513 468.123 153.892 477.828 161.016 488.208 159.425 498.587 157.833 505.711 148.128 504.12 137.749 502.528 127.369 492.823 120.245 482.444 121.837Z" fill="#3F3D56" transform="matrix(1 0 0 1.00384 2.96411 273.681)"/><path d="M228.055 125.02 230.332 124.19C230.332 124.19 228.698 126.701 228.343 126.9L228.343 126.9C228.38 127.374 228.453 127.845 228.56 128.309 227.018 148.359 209.074 142.358 209.074 142.358 215.156 141.57 215.291 139 215.291 139 211.688 139.024 210.63 136.83 210.63 136.83 211.338 137.075 212.116 136.748 212.438 136.072 208.48 135.669 208.428 131.877 208.428 131.877 209.182 132.263 210.021 132.449 210.867 132.417 210.365 131.965 206.139 128.237 207.961 125.697 207.961 125.697 211.313 129.992 218.285 129.356L218.74 129.19C218.608 128.864 218.523 128.521 218.488 128.171 218.07 125.446 219.94 122.899 222.664 122.481L222.664 122.481C225.953 121.976 226.946 123.748 226.946 123.748L229.079 121.978C229.032 121.985 229.158 124.37 228.055 125.02Z" fill="#3F3D56" transform="matrix(1 0 0 1.00384 2.96411 273.681)"/><path d="M302.386 166.797C305.124 166.386 307.68 168.262 308.108 170.997L309.629 180.918C310.041 183.656 308.165 186.212 305.429 186.64L295.509 188.161C292.771 188.573 290.215 186.696 289.787 183.961L288.266 174.04C287.854 171.302 289.73 168.746 292.466 168.318L302.386 166.797M302.082 164.813 292.161 166.334C288.332 166.933 285.705 170.512 286.281 174.344L287.803 184.265C288.401 188.094 291.98 190.721 295.813 190.145L305.734 188.624C309.563 188.025 312.19 184.446 311.613 180.614L310.092 170.693C309.493 166.864 305.915 164.237 302.082 164.813Z" fill="#3F3D56" transform="matrix(1 0 0 1.00384 2.96411 273.681)"/><path d="M304.635 171.53C303.815 171.654 303.05 171.089 302.926 170.269 302.802 169.448 303.367 168.683 304.187 168.559 305.007 168.435 305.773 169 305.896 169.82 306.02 170.638 305.459 171.402 304.642 171.529Z" fill="#3F3D56" transform="matrix(1 0 0 1.00384 2.96411 273.681)"/><path d="M298.339 173.51C300.531 173.174 302.58 174.679 302.916 176.87 303.252 179.062 301.748 181.112 299.556 181.448 297.364 181.784 295.315 180.279 294.979 178.088 294.643 175.896 296.147 173.847 298.339 173.51L298.339 173.51M298.035 171.526C294.747 172.031 292.491 175.104 292.995 178.392 293.499 181.679 296.573 183.936 299.86 183.432 303.148 182.928 305.404 179.854 304.9 176.566L304.9 176.566C304.396 173.279 301.322 171.022 298.035 171.526Z" fill="#3F3D56" transform="matrix(1 0 0 1.00384 2.96411 273.681)"/><path d="M484.057 127.744C476.909 128.841 472.004 135.524 473.101 142.671 473.89 147.81 477.643 151.995 482.666 153.335 482.459 152.348 482.381 151.339 482.436 150.331 482.523 149.242 483.018 143.023 483.018 143.023 482.636 142.422 482.387 141.746 482.288 141.041 481.994 139.123 482.883 137.521 484.27 137.308 485.448 137.127 486.15 137.924 486.312 138.982 486.494 140.166 486.008 142.05 485.873 143.75 485.765 144.862 486.58 145.851 487.693 145.959 487.896 145.979 488.1 145.967 488.3 145.926 490.749 145.55 491.918 142.148 491.346 138.417 490.911 135.58 488.674 133.753 485.202 134.286 481.279 134.887 479.279 138.192 479.78 141.461 479.883 142.389 480.326 143.246 481.024 143.866 481.263 144.009 481.383 144.289 481.32 144.56 481.293 144.807 481.242 145.4 481.214 145.641 481.212 145.889 481.01 146.09 480.762 146.088 480.712 146.088 480.663 146.08 480.616 146.064 478.695 145.601 477.548 143.755 477.206 141.525 476.643 137.851 479.069 132.967 485.216 132.025 490.155 131.267 493.956 134.344 494.544 138.18 495.323 143.258 493.079 147.481 488.92 148.119 487.522 148.333 486.094 147.778 485.512 146.992 485.512 146.992 485.219 150.088 485.145 150.69 484.997 151.718 484.703 152.719 484.271 153.663 491.437 154.636 498.035 149.617 499.008 142.451 499.982 135.285 494.962 128.687 487.796 127.713 486.555 127.545 485.295 127.555 484.057 127.744Z" fill="#3F3D56" transform="matrix(1 0 0 1.00384 2.96411 273.681)"/><path d="M404.677 96.4769 387.248 93.9086C386.315 93.7245 385.409 94.3316 385.225 95.2646L385.224 95.2721 382.65 112.74C382.531 113.72 383.199 114.621 384.171 114.793L401.595 117.36C402.554 117.463 403.419 116.776 403.534 115.818L406.108 98.3494C406.253 97.4675 405.656 96.6349 404.774 96.4897 404.742 96.4845 404.71 96.4802 404.677 96.4769ZM389.372 112.008 386.38 111.567 387.751 102.264 390.743 102.705ZM389.559 101.086 389.537 101.083C388.64 100.944 388.024 100.105 388.162 99.2075 388.3 98.3101 389.14 97.6945 390.037 97.8327 390.935 97.9708 391.55 98.8103 391.412 99.7078 391.275 100.597 390.449 101.211 389.559 101.086ZM400.306 113.619 397.314 113.178 398.064 108.092C398.243 106.873 397.931 105.976 396.848 105.817 396.154 105.72 395.473 106.072 395.151 106.695 395.037 106.92 394.965 107.164 394.94 107.415L394.159 112.713 391.167 112.272 392.538 102.97 395.53 103.411 395.339 104.705C396.035 103.827 397.155 103.4 398.26 103.591 400.224 103.88 401.519 105.393 401.107 108.184Z" fill="#3F3D56" transform="matrix(1 0 0 1.00384 2.96411 273.681)"/><path d="M160.373 205.932C159.279 198.808 152.616 193.919 145.492 195.013 138.368 196.107 133.479 202.769 134.573 209.893 135.547 216.239 140.991 220.933 147.411 220.964L146.029 211.95 142.752 212.452 142.18 208.722 145.457 208.219 145.021 205.377C144.525 202.144 146.177 200.062 149.124 199.61 150.093 199.475 151.072 199.411 152.051 199.419L152.537 202.594 150.91 202.844C149.308 203.089 148.96 204.16 149.116 205.182L149.488 207.602 153.065 207.053 153.066 210.871 150.06 211.332 151.442 220.347C157.559 218.392 161.346 212.279 160.373 205.932Z" fill="#3F3D56" fill-rule="evenodd" transform="matrix(1 0 0 1.00384 2.96411 273.681)"/><path d="M337.723 203.185 342.496 204.438 349.603 186.622 342.558 184.772 337.723 203.185Z" fill="#FFB6B6" transform="matrix(1 0 0 1.00384 66.3389 360.046)"/><path d="M399.622 294.155 414.301 298.009 414.35 297.824C415.179 294.668 413.293 291.439 410.137 290.61L410.137 290.609 407.99 287.871 402.452 288.592 401.171 288.255Z" fill="#2F2E41" transform="matrix(1 0 0 1.00384 2.96411 273.681)"/><path d="M362.195 206.756 367.13 206.756 369.478 187.718 362.194 187.719 362.195 206.756Z" fill="#FFB6B6" transform="matrix(1 0 0 1.00384 66.3389 360.046)"/><path d="M425.395 297.939 440.573 297.938 440.573 297.746C440.573 294.484 437.928 291.839 434.665 291.839L434.665 291.839 431.893 289.736 426.72 291.839 425.395 291.839Z" fill="#2F2E41" transform="matrix(1 0 0 1.00384 2.96411 273.681)"/><path d="M413.225 201.69C412.033 203.18 412.629 208.247 412.629 208.247 412.629 208.247 410.542 224.641 411.437 226.131 412.331 227.621 410.84 228.814 409.946 230.9 409.052 232.986 408.158 238.053 408.158 238.053 403.091 242.226 403.389 261.302 403.389 261.302L401.601 278.292C402.197 280.08 410.542 280.378 411.735 280.08 412.927 279.782 424.551 237.755 424.551 237.755 424.551 237.755 423.955 278.292 423.955 280.08 423.955 281.868 432.003 280.974 433.791 280.974 435.579 280.974 446.906 207.949 446.906 207.949L446.906 203.776 445.415 201.69C445.415 201.69 414.417 200.2 413.225 201.69Z" fill="#2F2E41" transform="matrix(1 0 0 1.00384 2.96411 273.681)"/><path d="M372.205 51.8709C372.205 56.9739 368.068 61.1108 362.965 61.1108 357.862 61.1108 353.725 56.9739 353.725 51.8709 353.725 46.7679 357.862 42.631 362.965 42.631 368.068 42.631 372.205 46.7679 372.205 51.8709Z" fill="#FFB6B6" transform="matrix(1 0 0 1.00384 66.3389 360.046)"/><path d="M413.926 208.282 413.875 208.211C411.184 204.443 415.232 195.388 415.842 194.075L415.842 194.075C414.347 193.59 413.403 192.117 413.587 190.556L413.85 188.318 414.124 186.124 412.159 184.158 412.153 184.109 411.022 174.212 409.378 167.639C408.116 162.579 409.682 157.232 413.474 153.653L417.275 153.049 421.895 148.598 429.345 148.598 431.9 151.038C436.922 155.155 438.114 153.367 443.777 161.116L439.722 171.799 441.989 187.555 441.99 190.407 443.171 191.719C444.033 192.677 444.392 193.986 444.139 195.25L443.984 196.026 443.984 196.026C445.201 196.548 446.09 197.628 446.368 198.923L446.782 200.858C447.137 201.326 449.478 204.448 449.478 205.301 449.478 205.429 449.384 205.553 449.181 205.691 447.585 206.771 438.766 208.974 434.863 207.412 430.705 205.749 414.178 208.243 414.012 208.269Z" fill="#3F3D56" transform="matrix(1 0 0 1.00384 2.96411 273.681)"/><path d="M409.232 170.8 416.914 169.296C419.755 173.54 421.281 185.142 421.281 185.142L429.775 202.758C431.406 203.749 431.925 205.875 430.934 207.506 429.943 209.138 427.817 209.657 426.186 208.666 425.1 208.006 424.464 206.805 424.528 205.537L413.45 184.665Z" fill="#FFB6B6" transform="matrix(1 0 0 1.00384 2.96411 273.681)"/><path d="M409.188 172.623 408.97 161.204 412.585 156.368C414.04 154.436 416.466 153.497 418.842 153.946L418.842 153.946C422.114 154.587 424.331 157.653 423.914 160.962 423.3 165.797 421.907 171.848 418.755 173.217L418.723 173.231 421.99 184.656 409.875 186.348Z" fill="#3F3D56" transform="matrix(1 0 0 1.00384 2.96411 273.681)"/><path d="M458.759 162.97C458.759 162.97 447.295 160.62 442.356 161.919L441.267 169.671 455.251 170.912 479.118 166.574C480.894 167.276 482.902 166.406 483.603 164.63 484.305 162.855 483.435 160.847 481.66 160.145 480.487 159.681 479.154 159.894 478.183 160.699Z" fill="#FFB6B6" transform="matrix(1 0 0 1.00384 2.96411 273.681)"/><path d="M444.878 171.486 433.526 170.235 429.194 166.027C427.465 164.336 426.846 161.81 427.597 159.511L427.597 159.511C428.654 156.348 431.979 154.544 435.207 155.384 439.923 156.614 444.642 155.466 445.594 158.768L447.294 158.212 458.456 160.338 458.577 172.57Z" fill="#3F3D56" transform="matrix(1 0 0 1.00384 2.96411 273.681)"/><path d="M415.859 131.834C416.897 130.229 418.844 129.159 420.731 129.46 421.261 125.824 424.639 123.306 428.275 123.836 429.626 124.033 430.885 124.642 431.879 125.579 432.471 125.162 433.238 125.085 433.902 125.377 434.551 125.672 435.117 126.126 435.546 126.696 437.752 129.448 438.267 133.19 436.885 136.436 437.116 135.597 436.275 134.808 435.426 134.62 434.577 134.432 433.687 134.61 432.826 134.487 431.722 134.33 430.73 133.69 429.624 133.546 428.687 133.485 427.747 133.606 426.855 133.902 425.964 134.198 425.025 134.324 424.087 134.274 423.157 134.163 421.959 137.689 421.975 140.172 421.978 140.643 421.881 141.247 421.421 141.347 420.855 141.47 420.526 140.688 419.987 140.475 419.471 140.327 418.93 140.615 418.764 141.125 418.626 141.632 418.742 142.175 419.075 142.581 419.406 142.979 419.799 143.32 420.24 143.592L420.017 143.777C419.583 144.236 418.884 144.323 418.35 143.984 417.841 143.639 417.429 143.17 417.152 142.62 416.112 141.012 415.368 139.229 414.956 137.358 414.55 135.469 414.873 133.496 415.859 131.834Z" fill="#2F2E41" transform="matrix(1 0 0 1.00384 2.96411 273.681)"/><path d="M493.378 290.423 489.713 284.533 488.981 287.899C488.853 288.488 488.725 289.087 488.606 289.681 487.565 288.792 486.457 287.97 485.374 287.181 482.046 284.766 478.72 282.348 475.396 279.927L476.437 285.964C477.079 289.681 477.749 293.475 479.337 296.873 479.513 297.258 479.703 297.639 479.907 298.009L495.375 298.009C495.499 297.665 495.585 297.308 495.632 296.945 495.635 296.921 495.637 296.897 495.636 296.873 495.879 294.568 494.605 292.396 493.378 290.423Z" fill="#F0F0F0" transform="matrix(1 0 0 1.00384 2.96411 273.681)"/><path d="M506.47 298.588 375.394 298.734C375.082 298.735 374.828 298.483 374.827 298.17 374.826 297.857 375.078 297.603 375.391 297.602 375.392 297.602 375.393 297.602 375.394 297.602L506.47 297.456C506.782 297.456 507.036 297.71 507.036 298.022 507.036 298.335 506.782 298.588 506.47 298.588Z" fill="#CACACA" transform="matrix(1 0 0 1.00384 2.96411 273.681)"/></g></g></g></g></svg>