<svg width="646" height="478.402" viewBox="0 0 646 478.402" xmlns="http://www.w3.org/2000/svg" xmlns:xlink="http://www.w3.org/1999/xlink" overflow="hidden"><path d="M316.87 687.764C316.87 667.329 333.436 650.764 353.87 650.764 374.305 650.764 390.87 667.329 390.87 687.764" fill="#F2F2F2" transform="translate(-277 -210.799)"/><path d="M353.87 687.764C353.318 687.764 352.87 687.316 352.87 686.764L352.87 667.264C352.87 666.712 353.318 666.264 353.87 666.264 354.422 666.264 354.87 666.712 354.87 667.264L354.87 686.764C354.87 687.316 354.422 687.764 353.87 687.764Z" fill="#CCCCCC" transform="translate(-277 -210.799)"/><path d="M353.87 681.063C353.631 681.063 353.4 680.978 353.219 680.822L341.219 670.523C340.798 670.165 340.746 669.534 341.103 669.113 341.461 668.692 342.092 668.64 342.513 668.998 342.516 669 342.519 669.003 342.521 669.005L354.521 679.304C354.941 679.664 354.989 680.295 354.629 680.714 354.439 680.936 354.161 681.063 353.87 681.063Z" fill="#CCCCCC" transform="translate(-277 -210.799)"/><path d="M430.87 687.764C430.87 667.329 447.436 650.764 467.87 650.764 488.305 650.764 504.87 667.329 504.87 687.764" fill="#F2F2F2" transform="translate(-277 -210.799)"/><path d="M467.87 687.764C467.318 687.764 466.87 687.316 466.87 686.764L466.87 667.264C466.87 666.712 467.318 666.264 467.87 666.264 468.422 666.264 468.87 666.712 468.87 667.264L468.87 686.764C468.87 687.316 468.422 687.764 467.87 687.764Z" fill="#CCCCCC" transform="translate(-277 -210.799)"/><path d="M467.87 681.063C467.631 681.063 467.4 680.978 467.219 680.822L455.219 670.523C454.8 670.163 454.752 669.532 455.111 669.112 455.471 668.693 456.102 668.645 456.521 669.005L468.521 679.304C468.941 679.664 468.989 680.295 468.629 680.714 468.439 680.936 468.161 681.063 467.87 681.063Z" fill="#CCCCCC" transform="translate(-277 -210.799)"/><circle cx="230.87" cy="159.402" r="15" fill="#FFFFFF"/><path d="M507.87 355.201C499.586 355.201 492.87 361.917 492.87 370.201 492.87 378.485 499.586 385.201 507.87 385.201 516.154 385.201 522.87 378.485 522.87 370.201 522.87 361.917 516.154 355.201 507.87 355.201ZM504.279 376.75C504.279 376.984 504.089 377.173 503.856 377.173L500.476 377.173C500.242 377.173 500.053 376.984 500.053 376.75L500.053 368.722C500.053 368.489 500.242 368.299 500.476 368.299L503.856 368.299C504.089 368.299 504.279 368.489 504.279 368.722ZM515.687 370.412C515.687 371.112 515.119 371.68 514.419 371.68L514.419 371.701C514.991 371.818 515.36 372.376 515.243 372.947 515.158 373.362 514.834 373.686 514.419 373.771L514.419 374.215C514.886 374.215 515.264 374.593 515.264 375.06 515.264 375.527 514.886 375.905 514.419 375.905L505.969 375.905C505.735 375.905 505.546 375.716 505.546 375.483L505.546 368.722C505.546 366.609 508.926 363.652 508.926 363.652L508.926 362.621C508.926 361.915 509.497 361.342 510.204 361.341 510.795 361.341 511.31 361.746 511.448 362.322L511.462 362.384C511.626 363.873 511.263 365.372 510.435 366.621L513.036 366.621C513.075 366.617 513.112 366.609 513.152 366.609L514.419 366.609C513.719 368.01 514.287 369.712 515.687 370.412Z" fill="#5E90FF" transform="translate(-277 -210.799)"/><circle cx="252.87" cy="72.4018" r="21" fill="#FFFFFF"/><path d="M529.87 262.201C518.272 262.201 508.87 271.603 508.87 283.201 508.87 294.799 518.272 304.201 529.87 304.201 541.468 304.201 550.87 294.799 550.87 283.201 550.87 271.603 541.468 262.201 529.87 262.201ZM524.842 292.37C524.842 292.697 524.577 292.961 524.25 292.961L519.518 292.961C519.191 292.961 518.926 292.697 518.926 292.37L518.926 281.13C518.926 280.804 519.191 280.539 519.518 280.539L524.25 280.539C524.577 280.539 524.842 280.804 524.842 281.13ZM540.814 283.497C540.814 284.477 540.019 285.271 539.039 285.271L539.039 285.301C539.839 285.465 540.356 286.246 540.192 287.046 540.074 287.627 539.62 288.081 539.039 288.199L539.039 288.821C539.692 288.821 540.222 289.35 540.222 290.004 540.222 290.657 539.693 291.187 539.039 291.187L527.208 291.187C526.881 291.187 526.617 290.922 526.617 290.595L526.617 281.13C526.617 278.173 531.349 274.032 531.349 274.032L531.349 272.59C531.348 271.601 532.148 270.799 533.137 270.797 533.965 270.797 534.686 271.364 534.88 272.17 534.886 272.198 534.892 272.228 534.898 272.257 535.49 275.215 533.461 278.189 533.461 278.189L537.103 278.189C537.157 278.184 537.209 278.173 537.264 278.173L539.039 278.173C540.019 278.173 540.814 278.967 540.814 279.947 540.814 280.927 540.019 281.722 539.039 281.722 540.019 281.722 540.814 282.517 540.814 283.497Z" fill="#5E90FF" transform="translate(-277 -210.799)"/><path d="M576.623 508.399C582.402 507.057 585.999 501.284 584.657 495.504 584.514 494.888 584.316 494.286 584.067 493.704L623.67 404.232 601.015 398.526 569.211 488.269C563.895 490.975 561.78 497.479 564.486 502.794 566.751 507.242 571.768 509.559 576.623 508.399Z" fill="#A0616A" transform="translate(-277 -210.799)"/><path d="M612.309 432.234 590.275 421.92C587.866 420.792 586.827 417.925 587.955 415.516 588.055 415.302 588.171 415.096 588.301 414.899L601.691 394.676C604.865 388.004 612.847 385.169 619.518 388.343 626.159 391.502 629.004 399.428 625.889 406.089L618.965 429.252C618.203 431.801 615.518 433.249 612.97 432.486 612.743 432.418 612.522 432.334 612.309 432.234Z" fill="#6C63FF" transform="translate(-277 -210.799)"/><path d="M535.702 420.727 559.994 437.926C560.632 438.389 561.496 438.389 562.135 437.926L568.699 432.997C569.501 432.41 569.676 431.284 569.089 430.482 569.01 430.373 568.918 430.273 568.817 430.185L550.124 413.516C549.624 413.079 548.928 412.945 548.301 413.163L536.138 417.516C535.187 417.867 534.701 418.922 535.052 419.873 535.179 420.216 535.405 420.514 535.702 420.727Z" fill="#3F3D56" transform="translate(-277 -210.799)"/><path d="M537.91 419.401 559.802 434.9C560.027 435.07 560.337 435.072 560.566 434.906L566.47 430.474C566.752 430.273 566.818 429.881 566.617 429.599 566.616 429.598 566.615 429.597 566.614 429.596 566.587 429.56 566.556 429.526 566.522 429.496L549.662 414.461C549.483 414.308 549.236 414.262 549.014 414.341L538.058 418.261C537.721 418.391 537.553 418.77 537.684 419.107 537.729 419.225 537.808 419.327 537.91 419.401Z" fill="#FFFFFF" transform="translate(-277 -210.799)"/><path d="M347.236 466.333 334.976 466.332 329.144 419.044 347.238 419.045 347.236 466.333Z" fill="#A0616A"/><path d="M627.363 689.016 587.832 689.015 587.832 688.515C587.832 680.017 594.72 673.129 603.218 673.129 603.218 673.129 603.218 673.129 603.219 673.129L603.22 673.129 627.363 673.13Z" fill="#2F2E41" transform="translate(-277 -210.799)"/><path d="M388.236 466.333 375.976 466.332 370.144 419.044 388.238 419.045 388.236 466.333Z" fill="#A0616A"/><path d="M668.363 689.016 628.832 689.015 628.832 688.515C628.832 680.017 635.72 673.129 644.218 673.129 644.218 673.129 644.218 673.129 644.219 673.129L644.22 673.129 668.363 673.13Z" fill="#2F2E41" transform="translate(-277 -210.799)"/><path d="M664.675 663.977C664.564 663.977 664.453 663.973 664.342 663.965L650.243 662.921C648.26 662.765 646.61 661.333 646.178 659.391L621.698 525.019C621.522 524.209 620.723 523.696 619.913 523.873 619.181 524.032 618.678 524.709 618.737 525.456L627.43 657.849C627.624 660.326 625.774 662.493 623.297 662.688 623.179 662.697 623.061 662.701 622.944 662.701L612.208 662.701C610.354 662.702 608.69 661.567 608.015 659.841 581.015 589.135 590.792 450.594 590.87 449.201L591.87 448.201 591.87 448.201 645.648 457.487 645.762 457.597C664.136 471.093 672.088 629.147 669.167 659.213 669.148 660.49 668.677 661.719 667.837 662.681 666.994 663.511 665.859 663.977 664.675 663.977Z" fill="#2F2E41" transform="translate(-277 -210.799)"/><circle cx="320.074" cy="131.796" r="24.561" fill="#A0616A"/><path d="M653.404 480.304C653.154 480.304 652.904 480.279 652.659 480.229L589.581 472.135C587.323 471.679 585.711 469.269 585.833 466.527L591.87 433.201C583.87 423.201 591.429 397.375 596.318 390.846L594.427 385.729C593.94 384.401 593.91 382.948 594.343 381.6 594.715 380.332 595.567 379.259 596.719 378.611L622.318 365.01C624.588 363.803 627.25 365.038 628.256 367.758L633.276 381.344 633.199 381.384C645.219 387.827 655.87 394.201 647.87 428.201L657.9 475.157C657.866 476.638 657.27 478.05 656.231 479.106 655.481 479.859 654.467 480.289 653.404 480.304Z" fill="#6C63FF" transform="translate(-277 -210.799)"/><path d="M564.403 425.254C564.806 425.633 565.179 426.044 565.517 426.481L614.993 423.063 620.3 412.247 637.67 418.123 630.135 438.184C628.884 441.513 625.587 443.617 622.041 443.348L565.781 439.081C562.393 443.786 555.833 444.854 551.129 441.467 546.424 438.079 545.356 431.519 548.743 426.814 552.131 422.11 558.691 421.042 563.396 424.429 563.748 424.683 564.085 424.958 564.403 425.254Z" fill="#A0616A" transform="translate(-277 -210.799)"/><path d="M614.099 420.678C613.601 419.468 613.654 418.101 614.245 416.934L624.448 396.784C626.628 390.235 633.704 386.693 640.252 388.873 646.775 391.044 650.319 398.075 648.186 404.609L644.256 426.925C643.825 429.372 641.492 431.007 639.044 430.576 638.827 430.538 638.613 430.483 638.403 430.414L616.839 423.235C615.597 422.822 614.597 421.888 614.099 420.678Z" fill="#6C63FF" transform="translate(-277 -210.799)"/><path d="M536.885 404.225C536.464 404.618 535.811 404.618 535.39 404.225L534.816 403.706C530.118 399.396 527.406 396.595 527.406 393.104 527.406 390.256 529.208 388.055 532.034 388.055 533.619 388.064 535.12 388.768 536.14 389.982 537.158 388.768 538.658 388.064 540.242 388.055 543.071 388.055 544.87 390.248 544.87 393.104 544.87 396.588 542.157 399.388 537.459 403.706Z" fill="#FF6584" transform="translate(-277 -210.799)"/><path d="M502.57 344.498C501.763 345.25 500.512 345.25 499.705 344.498L498.605 343.503C489.603 335.243 484.406 329.877 484.406 323.187 484.406 317.73 487.859 313.513 493.274 313.513 496.311 313.53 499.187 314.88 501.141 317.205 503.093 314.88 505.966 313.53 509.001 313.513 514.423 313.513 517.87 317.716 517.87 323.187 517.87 329.863 512.672 335.229 503.67 343.503Z" fill="#FF6584" transform="translate(-277 -210.799)"/><path d="M503.999 251.043C502.95 252.019 501.325 252.019 500.277 251.043L498.849 249.751C487.157 239.023 480.406 232.054 480.406 223.364 480.406 216.277 484.891 210.799 491.924 210.799 495.869 210.822 499.604 212.575 502.142 215.594 504.677 212.575 508.409 210.822 512.351 210.799 519.393 210.799 523.87 216.258 523.87 223.364 523.87 232.036 517.119 239.005 505.427 249.751Z" fill="#FF6584" transform="translate(-277 -210.799)"/><path d="M922 689.201 278 689.201C277.448 689.201 277 688.753 277 688.201 277 687.649 277.448 687.201 278 687.201L922 687.201C922.552 687.201 923 687.649 923 688.201 923 688.753 922.552 689.201 922 689.201Z" fill="#CCCCCC" transform="translate(-277 -210.799)"/><circle cx="333.87" cy="92.4018" r="20" fill="#2F2E41"/><path d="M573.823 345.632C571.869 345.838 569.792 346.024 568.034 345.146 566.126 344.065 564.85 342.138 564.596 339.96 560.87 315.201 581.923 317.237 584.414 316.165 586.088 315.444 587.321 313.993 588.817 312.952 592.089 310.675 596.334 310.508 600.32 310.422 605.051 310.32 609.954 310.25 614.297 312.131 618.202 313.961 621.447 316.952 623.588 320.695 625.707 324.422 627.259 328.444 628.195 332.628 629.399 337.415 630.218 342.479 628.978 347.256 626.881 354.702 620.282 359.99 612.559 360.415 614.175 354.708 610.648 348.382 605.416 345.59 601.194 343.513 596.39 342.941 591.799 343.968 588.821 344.571 585.802 344.947 582.767 345.093 579.789 345.204 576.214 345.379 573.823 345.632Z" fill="#2F2E41" transform="translate(-277 -210.799)"/><path d="M894.612 422.555C894.612 374.292 855.46 259.764 807.164 259.764 758.867 259.764 719.715 374.292 719.715 422.555 719.752 470.852 758.933 509.974 807.23 509.937 855.474 509.901 894.575 470.8 894.612 422.555Z" fill="#F2F2F2" transform="translate(-277 -210.799)"/><path d="M807.164 688.201C806.611 688.201 806.164 687.753 806.164 687.201L806.164 411.06C806.164 410.508 806.611 410.06 807.164 410.06 807.716 410.06 808.164 410.508 808.164 411.06L808.164 687.201C808.164 687.753 807.716 688.201 807.164 688.201Z" fill="#CCCCCC" transform="translate(-277 -210.799)"/><path d="M807.164 449.201C806.874 449.201 806.598 449.076 806.408 448.856L756.114 390.856C755.754 390.438 755.8 389.806 756.219 389.446 756.635 389.086 757.264 389.131 757.626 389.546L807.919 447.546C808.281 447.963 808.236 448.595 807.818 448.957 807.636 449.114 807.404 449.201 807.164 449.201Z" fill="#CCCCCC" transform="translate(-277 -210.799)"/><path d="M807.164 482.674C806.611 482.673 806.164 482.226 806.164 481.673 806.164 481.408 806.269 481.154 806.456 480.967L835.034 452.388C835.425 451.998 836.058 451.998 836.448 452.388 836.839 452.779 836.839 453.412 836.448 453.802L807.871 482.381C807.683 482.568 807.429 482.674 807.164 482.674Z" fill="#CCCCCC" transform="translate(-277 -210.799)"/><path d="M807.164 592.674C806.611 592.673 806.164 592.226 806.164 591.673 806.164 591.408 806.269 591.154 806.456 590.967L835.034 562.388C835.425 561.998 836.058 561.998 836.448 562.388 836.839 562.779 836.839 563.412 836.448 563.802L807.871 592.381C807.683 592.568 807.429 592.674 807.164 592.674Z" fill="#CCCCCC" transform="translate(-277 -210.799)"/></svg>